<svg xmlns="http://www.w3.org/2000/svg" width="15.908" height="15.863" viewBox="0 0 15.908 15.863">
  <path id="Path_39" data-name="Path 39" d="M590.115,165.061c-.026.039-.044.082-.066.122a1.714,1.714,0,0,0-.087.166c-.022.054-.035.111-.052.166s-.034.1-.044.147a1.683,1.683,0,0,0,0,.655c.01.051.029.1.044.147s.03.111.052.165a1.538,1.538,0,0,0,.088.167c.022.041.04.083.066.122a1.735,1.735,0,0,0,.211.257l6.254,6.255a1.674,1.674,0,0,0,2.368-2.368l-2.728-2.728,7.847-.67a1.675,1.675,0,1,0,0-3.349l-7.847-.67,2.728-2.728a1.674,1.674,0,1,0-2.368-2.368l-6.254,6.254A1.734,1.734,0,0,0,590.115,165.061Z" transform="translate(-589.834 -158.058)" fill="#1a1824"/>
</svg>
