<svg xmlns="http://www.w3.org/2000/svg" xmlns:xlink="http://www.w3.org/1999/xlink" width="92.974" height="30.462" viewBox="0 0 92.974 30.462">
  <defs>
    <filter id="path" x="0" y="0" width="31.068" height="30.462" filterUnits="userSpaceOnUse">
      <feOffset dy="3" input="SourceAlpha"/>
      <feGaussianBlur stdDeviation="3" result="blur"/>
      <feFlood flood-opacity="0.161"/>
      <feComposite operator="in" in2="blur"/>
      <feComposite in="SourceGraphic"/>
    </filter>
    <filter id="path-2" x="15.476" y="0" width="31.068" height="30.462" filterUnits="userSpaceOnUse">
      <feOffset dy="3" input="SourceAlpha"/>
      <feGaussianBlur stdDeviation="3" result="blur-2"/>
      <feFlood flood-opacity="0.161"/>
      <feComposite operator="in" in2="blur-2"/>
      <feComposite in="SourceGraphic"/>
    </filter>
    <filter id="path-3" x="30.953" y="0" width="31.068" height="30.462" filterUnits="userSpaceOnUse">
      <feOffset dy="3" input="SourceAlpha"/>
      <feGaussianBlur stdDeviation="3" result="blur-3"/>
      <feFlood flood-opacity="0.161"/>
      <feComposite operator="in" in2="blur-3"/>
      <feComposite in="SourceGraphic"/>
    </filter>
    <filter id="path-4" x="61.906" y="0" width="31.068" height="30.462" filterUnits="userSpaceOnUse">
      <feOffset dy="3" input="SourceAlpha"/>
      <feGaussianBlur stdDeviation="3" result="blur-4"/>
      <feFlood flood-opacity="0.161"/>
      <feComposite operator="in" in2="blur-4"/>
      <feComposite in="SourceGraphic"/>
    </filter>
    <filter id="path-5" x="46.429" y="0" width="31.068" height="30.462" filterUnits="userSpaceOnUse">
      <feOffset dy="3" input="SourceAlpha"/>
      <feGaussianBlur stdDeviation="3" result="blur-5"/>
      <feFlood flood-opacity="0.161"/>
      <feComposite operator="in" in2="blur-5"/>
      <feComposite in="SourceGraphic"/>
    </filter>
  </defs>
  <g id="Group_1887" data-name="Group 1887" transform="translate(9 6)">
    <g id="Component_1" data-name="Component 1" transform="translate(0 0)">
      <g transform="matrix(1, 0, 0, 1, -9, -6)" filter="url(#path)">
        <path id="path-6" data-name="path" d="M12.619,4.474H8.242L6.921.3a.415.415,0,0,0-.784,0L4.774,4.474H.4a.408.408,0,0,0-.248.743L3.7,7.777l-1.362,4.17a.4.4,0,0,0,.619.454l3.551-2.56,3.551,2.56a.4.4,0,0,0,.619-.454L9.316,7.777l3.551-2.56A.408.408,0,0,0,12.619,4.474Z" transform="translate(9.03 5.98)" fill="#0199f5"/>
      </g>
    </g>
    <g id="Component_2" data-name="Component 2" transform="translate(15.476 0)">
      <g transform="matrix(1, 0, 0, 1, -24.48, -6)" filter="url(#path-2)">
        <path id="path-7" data-name="path" d="M12.619,4.474H8.242L6.921.3a.415.415,0,0,0-.784,0L4.774,4.474H.4a.408.408,0,0,0-.248.743L3.7,7.777l-1.362,4.17a.4.4,0,0,0,.619.454l3.551-2.56,3.551,2.56a.4.4,0,0,0,.619-.454L9.316,7.777l3.551-2.56A.408.408,0,0,0,12.619,4.474Z" transform="translate(24.5 5.98)" fill="#0199f5"/>
      </g>
    </g>
    <g id="Component_3" data-name="Component 3" transform="translate(30.953 0)">
      <g transform="matrix(1, 0, 0, 1, -39.95, -6)" filter="url(#path-3)">
        <path id="path-8" data-name="path" d="M12.619,4.474H8.242L6.921.3a.415.415,0,0,0-.784,0L4.774,4.474H.4a.408.408,0,0,0-.248.743L3.7,7.777l-1.362,4.17a.4.4,0,0,0,.619.454l3.551-2.56,3.551,2.56a.4.4,0,0,0,.619-.454L9.316,7.777l3.551-2.56A.408.408,0,0,0,12.619,4.474Z" transform="translate(39.98 5.98)" fill="#0199f5"/>
      </g>
    </g>
    <g id="Component_1-2" data-name="Component 1" transform="translate(61.906 0)">
      <g transform="matrix(1, 0, 0, 1, -70.91, -6)" filter="url(#path-4)">
        <path id="path-9" data-name="path" d="M12.619,4.474H8.242L6.921.3a.415.415,0,0,0-.784,0L4.774,4.474H.4a.408.408,0,0,0-.248.743L3.7,7.777l-1.362,4.17a.4.4,0,0,0,.619.454l3.551-2.56,3.551,2.56a.4.4,0,0,0,.619-.454L9.316,7.777l3.551-2.56A.408.408,0,0,0,12.619,4.474Z" transform="translate(70.93 5.98)" fill="#707070"/>
      </g>
    </g>
    <g id="Component_4" data-name="Component 4" transform="translate(46.429 0)">
      <g transform="matrix(1, 0, 0, 1, -55.43, -6)" filter="url(#path-5)">
        <path id="path-10" data-name="path" d="M12.619,4.474H8.242L6.921.3a.415.415,0,0,0-.784,0L4.774,4.474H.4a.408.408,0,0,0-.248.743L3.7,7.777l-1.362,4.17a.4.4,0,0,0,.619.454l3.551-2.56,3.551,2.56a.4.4,0,0,0,.619-.454L9.316,7.777l3.551-2.56A.408.408,0,0,0,12.619,4.474Z" transform="translate(55.45 5.98)" fill="#0199f5"/>
      </g>
    </g>
  </g>
</svg>
