<svg xmlns="http://www.w3.org/2000/svg" xmlns:xlink="http://www.w3.org/1999/xlink" width="375.12" height="502.392" viewBox="0 0 375.12 502.392">
  <defs>
    <linearGradient id="linear-gradient" x1="0.49" y1="-0.132" x2="0.512" y2="1.362" gradientUnits="objectBoundingBox">
      <stop offset="0" stop-color="#fff"/>
      <stop offset="1" stop-color="#d8e0ff"/>
    </linearGradient>
    <linearGradient id="linear-gradient-2" x1="0.211" y1="-1.523" x2="0.547" y2="1.524" xlink:href="#linear-gradient"/>
    <linearGradient id="linear-gradient-3" x1="0.453" y1="-0.005" x2="0.521" y2="0.769" gradientUnits="objectBoundingBox">
      <stop offset="0" stop-color="#fff"/>
      <stop offset="1" stop-color="#fff" stop-opacity="0"/>
    </linearGradient>
    <linearGradient id="linear-gradient-4" x1="0.521" y1="1.053" x2="0.486" y2="-0.018" gradientUnits="objectBoundingBox">
      <stop offset="0" stop-color="#667aff"/>
      <stop offset="1" stop-color="#8dcfff"/>
    </linearGradient>
    <linearGradient id="linear-gradient-5" x1="0.506" y1="0.669" x2="0.485" y2="-0.227" xlink:href="#linear-gradient-4"/>
    <linearGradient id="linear-gradient-6" x1="0.492" y1="0.933" x2="0.511" y2="-0.271" gradientUnits="objectBoundingBox">
      <stop offset="0" stop-color="#ffbfab"/>
      <stop offset="1" stop-color="#ffd8cc"/>
    </linearGradient>
    <linearGradient id="linear-gradient-7" x1="0.929" y1="0.515" x2="1.619" y2="0.734" xlink:href="#linear-gradient-6"/>
    <linearGradient id="linear-gradient-8" x1="0.5" x2="0.5" y2="1" gradientUnits="objectBoundingBox">
      <stop offset="0" stop-color="#9275ff"/>
      <stop offset="1" stop-color="#ffb3ff"/>
    </linearGradient>
    <linearGradient id="linear-gradient-9" x1="0.441" y1="0.276" x2="1.135" y2="2.772" xlink:href="#linear-gradient-8"/>
    <linearGradient id="linear-gradient-10" x1="0.255" y1="0.258" x2="3.339" y2="2.288" xlink:href="#linear-gradient-8"/>
    <linearGradient id="linear-gradient-11" x1="0.52" y1="-1.338" x2="0.462" y2="3.3" xlink:href="#linear-gradient-8"/>
    <linearGradient id="linear-gradient-12" x1="0.418" y1="1.708" x2="0.513" y2="0.169" gradientUnits="objectBoundingBox">
      <stop offset="0" stop-color="#2a1f31"/>
      <stop offset="1" stop-color="#6a517f"/>
    </linearGradient>
    <linearGradient id="linear-gradient-13" x1="0.211" y1="2.079" x2="0.66" y2="-0.829" xlink:href="#linear-gradient-12"/>
    <linearGradient id="linear-gradient-14" x1="1.465" y1="-1.051" x2="-0.563" y2="2.259" gradientUnits="objectBoundingBox">
      <stop offset="0" stop-color="#ff7570"/>
      <stop offset="1" stop-color="#fbb"/>
    </linearGradient>
    <linearGradient id="linear-gradient-15" x1="1.696" y1="-2.037" x2="0.293" y2="0.759" xlink:href="#linear-gradient-14"/>
    <linearGradient id="linear-gradient-16" x1="2.016" y1="-0.713" x2="-0.05" y2="1.016" xlink:href="#linear-gradient-14"/>
    <linearGradient id="linear-gradient-17" x1="-0.762" y1="-0.717" x2="0.761" y2="0.832" xlink:href="#linear-gradient-14"/>
    <linearGradient id="linear-gradient-18" x1="0.208" y1="-0.284" x2="0.024" y2="4.003" xlink:href="#linear-gradient-12"/>
    <linearGradient id="linear-gradient-19" x1="0.161" y1="0.004" x2="-0.023" y2="4.293" xlink:href="#linear-gradient-12"/>
    <linearGradient id="linear-gradient-20" x1="1.635" y1="1.553" x2="-1.128" y2="-0.494" gradientUnits="objectBoundingBox">
      <stop offset="0" stop-color="#ffbfab"/>
      <stop offset="1" stop-color="#ff8b88"/>
    </linearGradient>
    <linearGradient id="linear-gradient-21" x1="-0.044" y1="0.08" x2="1.053" y2="0.956" xlink:href="#linear-gradient-12"/>
    <linearGradient id="linear-gradient-22" x1="1.258" y1="3.032" x2="0.097" y2="-0.642" gradientUnits="objectBoundingBox">
      <stop offset="0" stop-color="#669fcd"/>
      <stop offset="1" stop-color="#a7ff95"/>
    </linearGradient>
    <linearGradient id="linear-gradient-23" x1="1.334" y1="2.545" x2="-0.311" y2="-1.726" xlink:href="#linear-gradient-22"/>
    <linearGradient id="linear-gradient-24" x1="2.209" y1="2.045" x2="-1.43" y2="-0.836" xlink:href="#linear-gradient-22"/>
    <linearGradient id="linear-gradient-25" x1="0.5" y1="-1.017" x2="0.5" y2="1.765" gradientUnits="objectBoundingBox">
      <stop offset="0" stop-color="#ff6d79"/>
      <stop offset="1" stop-color="#ff8b88"/>
    </linearGradient>
    <linearGradient id="linear-gradient-26" x1="1.801" y1="-1.233" x2="1.801" y2="1.358" xlink:href="#linear-gradient-25"/>
  </defs>
  <g id="Group_34" data-name="Group 34" transform="translate(0.023 234.882)">
    <path id="Path_76" data-name="Path 76" d="M862.057,99.833V555.6c0,12.872-13.835,23.313-30.9,23.313h-313.2a38.628,38.628,0,0,1-5.976-.449c-14.181-2.085-24.923-11.541-24.923-22.864V99.833c0-12.873,13.855-23.313,30.9-23.313h313.2C848.221,76.52,862.057,86.96,862.057,99.833Z" transform="translate(-487.057 -311.402)" fill="#fff"/>
    <g id="Group_33" data-name="Group 33" transform="translate(-0.024 -153.324)">
      <path id="Path_77" data-name="Path 77" d="M862.153,76.52l-.1,362.362c-24.116,42.543-57.648,54.481-92.179,51.953a143.819,143.819,0,0,1-20.753-3.076c-3.113-.7-6.207-1.462-9.3-2.345a227.985,227.985,0,0,1-24.923-8.527q-3.747-1.462-7.437-3.106c-5.284-2.284-10.473-4.69-15.507-7.157q-3.719-1.827-7.321-3.654c-1.9-.974-3.786-1.949-5.63-2.923-14.873-7.827-28.017-15.562-38.355-21.135-26.23-14.1-53.939-19.977-81.053-16.018-2.786.4-5.573.914-8.34,1.523-22.348,4.964-44.139,16.78-64.2,36.331V125.55c0-27.073-.053-19.644,0-49.354l344.1.324C848.221,76.52,830.294,76.677,862.153,76.52Z" transform="translate(-487.033 -76.196)" fill="url(#linear-gradient)"/>
      <path id="Path_78" data-name="Path 78" d="M678.965,131.67a79.962,79.962,0,0,1-40.853-55.15H597.3A120.408,120.408,0,0,0,760.46,173.2V128.134A80.069,80.069,0,0,1,678.965,131.67Z" transform="translate(-385.436 -76.196)" fill="url(#linear-gradient-2)"/>
      <path id="Path_79" data-name="Path 79" d="M533.875,218.9c-1.368-17.869,16.781-19.422,16.781-19.422s-7.195-37.146,18.663-45.707,35.1,13.734,35.1,13.734-4.452-16.545,6.507-20.619S629.423,157.2,629.423,157.2s-1.975-15.411,14.937-21.234,63.428,15.281,60.548,53.53-52.2,70.323-52.2,70.323" transform="translate(-443.954 130.706)" fill="url(#linear-gradient-3)"/>
      <path id="Path_80" data-name="Path 80" d="M862.057,155.77v76.364c-24.116,26.845-57.648,34.377-92.179,32.782-6.9-.307-13.836-.98-20.753-1.941-3.113-.442-6.207-.922-9.3-1.48-8.436-1.46-16.776-3.305-24.923-5.38q-3.747-.922-7.437-1.96c-5.284-1.441-10.473-2.959-15.507-4.516q-3.719-1.153-7.321-2.306c-1.9-.615-3.786-1.23-5.63-1.845-14.873-4.939-28.017-9.819-38.355-13.336-26.23-8.9-53.939-12.606-81.053-10.108-2.786.25-5.573.576-8.34.961a165.9,165.9,0,0,0-64.2,22.925V185.651c19.312-7.033,46.964-7.686,69.812,5.9,22.829,13.567,48.616-12.932,73.29-2.613,24.673,10.3,42.6-16.583,81.918-2.4,39.316,14.2,55.035-14.258,84.147-6.188C818.629,186.535,841.63,158.825,862.057,155.77Z" transform="translate(-487.033 149.841)" fill="url(#linear-gradient-4)"/>
      <path id="Path_81" data-name="Path 81" d="M862.057,159.34v69.5c-24.116,26.845-57.648,34.377-92.179,32.783-6.9-.307-13.836-.98-20.753-1.941-3.113-.442-6.207-.922-9.3-1.48-8.436-1.46-16.776-3.305-24.923-5.38q-3.747-.922-7.437-1.96c-5.284-1.441-10.473-2.959-15.507-4.516q-3.719-1.153-7.321-2.306c-1.9-.615-3.786-1.23-5.63-1.845-14.873-4.939-28.017-9.819-38.355-13.336-26.23-8.9-53.939-12.606-81.053-10.108-2.786.25-5.573.576-8.34.961a165.9,165.9,0,0,0-64.2,22.925v-53.42c19.312-7.033,46.964-7.686,69.812,5.9,22.829,13.566,48.616-12.932,73.29-2.613,24.673,10.3,42.6-16.583,81.918-2.4,39.316,14.2,55.035-14.258,84.147-6.188C818.629,190.1,841.63,162.4,862.057,159.34Z" transform="translate(-487.033 153.131)" fill="url(#linear-gradient-5)"/>
      <path id="Path_82" data-name="Path 82" d="M862.057,172.78v43.678c-24.116,26.845-57.648,34.377-92.179,32.783-6.9-.307-13.836-.98-20.753-1.941-3.113-.442-6.207-.922-9.3-1.48-8.436-1.46-16.776-3.305-24.923-5.38q-3.747-.922-7.437-1.96c-5.284-1.441-10.473-2.959-15.507-4.516q-3.719-1.153-7.321-2.306c-1.9-.615-3.786-1.23-5.63-1.845-14.873-4.939-28.017-9.819-38.355-13.336-50.673-17.2-106.841-14.989-153.593,13.778V193.322c33.494,2.94,83.436-7.744,132.36-2.594,56.86,5.976,121.925-12.183,163.355-9.781C808.118,182.407,840.631,177.123,862.057,172.78Z" transform="translate(-487.033 165.517)" fill="url(#linear-gradient-6)"/>
      <path id="Path_83" data-name="Path 83" d="M862.057,183.4v23.271c-24.116,26.845-57.648,34.377-92.179,32.782-6.9-.307-13.836-.98-20.753-1.941-3.113-.442-6.207-.922-9.3-1.48-8.436-1.46-16.776-3.305-24.923-5.38q-3.747-.922-7.437-1.96c-5.284-1.441-10.473-2.959-15.507-4.516q-3.719-1.153-7.321-2.306c-1.9-.615-3.786-1.23-5.63-1.845-14.873-4.939-28.017-9.819-38.355-13.336-50.673-17.2-106.841-14.988-153.593,13.778V200.5c23.405-1.614,55.227-16.2,97.425-9.8,47.271,7.168,98.463,32.187,173.5,24.52C801.373,210.783,838.479,195.506,862.057,183.4Z" transform="translate(-487.033 175.304)" fill="url(#linear-gradient-7)"/>
      <g id="Group_30" data-name="Group 30" transform="translate(162.95 212.893)">
        <path id="Path_84" data-name="Path 84" d="M732.155,211.561c-.384,1.9-.826,3.151-1.211,3.4a18.316,18.316,0,0,1-4.266.711c-9.531.98-31.61,2.056-33.57,3.055-.711.365-1.922,5.457-3.286,12.49-.557,2.825-1.114,5.938-1.71,9.2-1.153,6.61-2.325,13.8-3.286,20-6.9-.307-13.835-.98-20.753-1.941-3.113-.442-6.207-.922-9.3-1.48-8.436-1.46-16.776-3.305-24.923-5.38q-3.747-.922-7.437-1.96c-5.284-1.441-10.473-2.959-15.507-4.516q-3.719-1.153-7.321-2.306c-1.9-.615-3.786-1.23-5.63-1.845.6-1.038,1.211-2.095,1.825-3.209,7.3-13.009,15.3-34.473,15.3-34.473s-19.389,2.21-27.767.845c-2.056-.346-3.459-.9-3.728-1.749a11.049,11.049,0,0,1,.211-5.246c.98-4.766,3.171-11.126,2.056-17.141-1.595-8.666-2.037-15.065,1.845-15.065q.375,0,1.268-.058c.173,0,.346-.019.538-.038h.115c.423-.038.884-.077,1.422-.115.365-.019.769-.058,1.191-.1.269-.038.576-.058.884-.077.346-.019.711-.058,1.076-.1.288-.019.6-.058.922-.077.672-.058,1.384-.115,2.133-.192,1.076-.1,2.248-.192,3.478-.307,1.5-.115,3.094-.269,4.766-.4.711-.077,1.441-.135,2.191-.192,1.46-.134,3-.25,4.554-.384,4.689-.384,9.685-.788,14.623-1.134.672-.038,1.345-.1,2-.135,3.132-.211,6.207-.423,9.147-.576,3.151-.173,6.149-.307,8.878-.365,2.133-.058,4.112-.1,5.842-.058,1.787.019,3.344.077,4.593.192l14.623,3.651,5.342.711,8.532,1.153,9.454,1.268,6.053.807,5.88.788,8.3,1.115,7.571,1.018s.25.058.692.192a1.972,1.972,0,0,1,.269.077c.134.038.288.1.442.135a23.4,23.4,0,0,1,5.688,2.806.423.423,0,0,1,.1.058c.269.192.557.4.826.615.25.192.48.384.73.6a15.663,15.663,0,0,1,3.113,3.574,4.976,4.976,0,0,1,.365.634,1.435,1.435,0,0,1,.134.231c.135.231.25.48.365.73a13.236,13.236,0,0,1,.519,1.307C734.653,189.136,733.6,204.643,732.155,211.561Z" transform="translate(-564.932 -58.563)" fill="url(#linear-gradient-8)"/>
        <g id="Group_29" data-name="Group 29" transform="translate(18.76 102.517)">
          <path id="Path_85" data-name="Path 85" d="M645.653,196.75A27.055,27.055,0,0,0,618.6,223.729c3.094.557,6.188,1.038,9.3,1.48-.038-.461-.058-.922-.058-1.4a17.812,17.812,0,0,1,17.813-17.813,17.537,17.537,0,0,1,6.284,1.153c.6-3.267,1.153-6.38,1.71-9.2A27.363,27.363,0,0,0,645.653,196.75Z" transform="translate(-547.517 -127.803)" fill="#fff" opacity="0.1" style="mix-blend-mode: overlay;isolation: isolate"/>
          <path id="Path_86" data-name="Path 86" d="M631.914,160.87c-2.94.154-6.014.365-9.147.576-.653.038-1.326.1-2,.135.346.327.673.653.98,1A17.811,17.811,0,0,1,599.785,190.1a17.071,17.071,0,0,1-2.786-2,17.766,17.766,0,0,1-2.364-24.4c-1.23.115-2.4.211-3.478.307-.749.077-1.46.135-2.133.192-.327.019-.634.058-.922.077-.365.038-.73.077-1.076.1-.307.019-.615.038-.884.077-.423.038-.826.077-1.191.1-.538.038-1,.077-1.422.115a26.586,26.586,0,0,0-1.922,9.992,27.047,27.047,0,1,0,50.307-13.778Z" transform="translate(-581.607 -160.87)" fill="#fff" opacity="0.1" style="mix-blend-mode: overlay;isolation: isolate"/>
          <path id="Path_87" data-name="Path 87" d="M666.9,168.411a11.66,11.66,0,0,1-8.858,9.973,10.239,10.239,0,0,1-2.556.327.652.652,0,0,1-.192.019,11.719,11.719,0,0,1-11.722-11.722,10.517,10.517,0,0,1,.173-1.922l-6.053-.807a18.23,18.23,0,0,0-.211,2.729,17.813,17.813,0,0,0,17.813,17.813,17.217,17.217,0,0,0,3-.25c.288-.058.577-.1.846-.173a17.825,17.825,0,0,0,13.451-13.182A23.4,23.4,0,0,0,666.9,168.411Z" transform="translate(-530.117 -157.727)" fill="#fff" opacity="0.1" style="mix-blend-mode: overlay;isolation: isolate"/>
          <path id="Path_88" data-name="Path 88" d="M607.5,192.29A17.825,17.825,0,0,0,589.687,210.1a16.827,16.827,0,0,0,.365,3.574q3.6,1.153,7.321,2.306a11.568,11.568,0,0,1-1.595-5.88,11.722,11.722,0,1,1,17.1,10.4q3.689,1.038,7.437,1.96A17.817,17.817,0,0,0,607.5,192.29Z" transform="translate(-574.16 -131.913)" fill="#fff" opacity="0.1" style="mix-blend-mode: overlay;isolation: isolate"/>
        </g>
        <path id="Path_89" data-name="Path 89" d="M608.576,166.615c-.845,16.6-9.762,33.34-25.269,36.453-2.056-.346-3.459-.9-3.728-1.749-1.384-4.343,3.882-13.7,2.267-22.387-1.595-8.666-2.037-15.065,1.845-15.065,1.672,0,12.068-1,24.539-2.037A19.244,19.244,0,0,1,608.576,166.615Z" transform="translate(-564.931 -57.468)" fill="url(#linear-gradient-9)"/>
        <path id="Path_90" data-name="Path 90" d="M667.717,210.31a18.316,18.316,0,0,1-4.266.711c-8.859-8.34-17.256-30.265-15.181-45.33l7.571,1.018s10.281,2.287,13.24,10.953C672.059,186.347,669.542,209.176,667.717,210.31Z" transform="translate(-501.704 -53.911)" fill="url(#linear-gradient-10)"/>
        <path id="Path_91" data-name="Path 91" d="M651.732,166.367c-2.344,7.206-7.821,17.256-20.215,17.544-17.563.423-21.522-11.568-18.716-23.194a91.783,91.783,0,0,1,10.434.135l14.624,3.651Z" transform="translate(-534.855 -58.565)" fill="url(#linear-gradient-11)"/>
        <path id="Path_92" data-name="Path 92" d="M679.969,161.056c-.845,1.576-1.845,3.19-2.748,4.862a51.078,51.078,0,0,1-3.632,5.649c-3.44,4.823-8.071,10.4-11.837,14.969-1.384,1.672-2.652,3.228-3.709,4.554-5.131,6.514-10.78,12.164-16.6,7.014L614.9,152.562c-3.151-5.419-4.746-12.279-5.073-19.1-.4-8.032.942-16.007,3.536-21.483a18.222,18.222,0,0,1,7.513,7.994c-.115-.653-1.46-7.552.019-12.452,5.976,4.8,64.719,11.145,55.3,40.411C684.158,151.467,682.755,156,679.969,161.056Z" transform="translate(-536.901 -107.52)" fill="url(#linear-gradient-12)"/>
        <path id="Path_93" data-name="Path 93" d="M679.935,148.614c-.846,1.576-1.845,3.19-2.748,4.862a51.049,51.049,0,0,1-3.632,5.649c-3.44,4.823-8.071,10.4-11.837,14.969-1.384,1.672-2.652,3.228-3.709,4.554-5.131,6.514-10.78,12.164-16.6,7.014L614.87,140.121c-3.151-5.419-4.746-12.279-5.073-19.1,5.8,9.224,15.68,13.24,29.727,14.988,17.813,2.229,23.962-.346,28.766,8.051C670.616,148.153,675.362,149.479,679.935,148.614Z" transform="translate(-536.867 -95.078)" fill="url(#linear-gradient-13)"/>
        <path id="Path_94" data-name="Path 94" d="M617.142,160.578a87.636,87.636,0,0,1-2.569,18.149s3.082,8.05,13.184,7.877,12.844-7.362,12.844-7.362.684-21.918,3.082-28.766Z" transform="translate(-532.465 -67.932)" fill="url(#linear-gradient-14)"/>
        <path id="Path_95" data-name="Path 95" d="M665.165,158.618c-.807,6.4-5.15,11.4-9.589,10.377-10.165,17.467-24.1,17.929-31.053,16.43-5.092-1.076-9.877-5.707-12.567-12.2a30.03,30.03,0,0,1-2.056-7.879,73.474,73.474,0,0,1,.231-15.142,192.36,192.36,0,0,1,3.42-20.811c15.872,12.2,45.907,12.894,45.907,12.894a19.637,19.637,0,0,0-3.44,5.938c-1.249,3.536-1.019,13.816-1.019,13.816a10.693,10.693,0,0,1,2.729-4.362C659.669,155.947,665.953,152.219,665.165,158.618Z" transform="translate(-537.046 -87.365)" fill="url(#linear-gradient-15)"/>
        <path id="Path_96" data-name="Path 96" d="M646.754,163.241c-8.34,9.839-29.554,34.416-43.486,46.311a25.693,25.693,0,0,1-20.6,6.149c-11.337-1.806-11.895-10.55-9.973-20.849.039-.173.077-.346.135-.538a.116.116,0,0,1,.019-.077c3.786-11.933,55.035-43.678,68.985-52.152,1.5-.9,2.556-1.556,3.094-1.864a73.483,73.483,0,0,0-.231,15.142A30.028,30.028,0,0,0,646.754,163.241Z" transform="translate(-571.844 -77.384)" fill="url(#linear-gradient-16)"/>
        <path id="Path_97" data-name="Path 97" d="M699.135,214.121c-1.384,10.4-4.65,18.524-15.988,16.68a25.668,25.668,0,0,1-17.64-12.279c-.692-1.134-1.4-2.383-2.152-3.728-8.628-15.661-20.869-45.081-26.537-58.974,3.766-4.573,8.4-10.146,11.837-14.969,2.825,3.286,9.781,11.434,17.66,21.253v.019C681.552,181.069,700.211,206.184,699.135,214.121Z" transform="translate(-511.965 -76.803)" fill="url(#linear-gradient-17)"/>
        <path id="Path_98" data-name="Path 98" d="M620.57,141.342c-1.8,4.279-4.879,8.989-4.366,10.959s5.48,1.968,5.48,1.968" transform="translate(-531.014 -76.35)" fill="none" stroke="#ff7570" stroke-linecap="round" stroke-linejoin="round" stroke-width="1"/>
        <path id="Path_99" data-name="Path 99" d="M628.37,144.772c-.167,1.86-1.334,3.274-2.606,3.161s-2.166-1.716-2-3.578,1.336-3.274,2.607-3.159S628.539,142.912,628.37,144.772Z" transform="translate(-524.012 -76.49)" fill="url(#linear-gradient-18)"/>
        <path id="Path_100" data-name="Path 100" d="M617.187,143.016c-.167,1.86-1.336,3.274-2.606,3.159s-2.166-1.716-2-3.576,1.335-3.274,2.608-3.159S617.356,141.156,617.187,143.016Z" transform="translate(-534.318 -78.108)" fill="url(#linear-gradient-19)"/>
        <path id="Path_101" data-name="Path 101" d="M612.408,137.74s3.741-1.91,6.533.892" transform="translate(-534.461 -80.255)" fill="none" stroke="#2a1f31" stroke-linecap="round" stroke-miterlimit="10" stroke-width="1"/>
        <path id="Path_102" data-name="Path 102" d="M624.112,139.027s4.007-1.266,6.3,1.96" transform="translate(-523.674 -78.708)" fill="none" stroke="#2a1f31" stroke-linecap="round" stroke-miterlimit="10" stroke-width="1"/>
        <path id="Path_103" data-name="Path 103" d="M617.585,152.9c3.547,3.436,9.1,2.308,10.107.085" transform="translate(-529.689 -65.701)" fill="none" stroke="#f94848" stroke-linecap="round" stroke-linejoin="round" stroke-width="1"/>
        <path id="Path_104" data-name="Path 104" d="M686.407,203.918c-1.384,10.4-4.65,18.524-15.988,16.68a25.668,25.668,0,0,1-17.64-12.279c-.692-1.134-1.4-2.383-2.152-3.728,1.71-.4,4.631,1.633,8.34,5.361,6.168,6.207,15.872,8.263,19.293,1.172,3.42-7.071,4.8-13.336-4.554-25.846-9.378-12.51-21.945-26.364-20.119-33.359C668.824,170.867,687.483,195.982,686.407,203.918Z" transform="translate(-499.238 -66.601)" fill="url(#linear-gradient-20)"/>
      </g>
      <g id="Group_32" data-name="Group 32" transform="translate(0.024 250.824)">
        <g id="Group_31" data-name="Group 31" transform="translate(25.596 40.296)">
          <path id="Path_106" data-name="Path 106" d="M547.322,223.428c-2.786.25-5.573.576-8.34.961l-38.6-66.257,6.649-3.862Z" transform="translate(-500.377 -154.27)" fill="url(#linear-gradient-21)"/>
        </g>
        <path id="Path_107" data-name="Path 107" d="M619.244,164.122l-18.37,9.512-27.69,14.335L538.5,205.917l-.269.154h-.019l-6.822,3.536-17.871,9.243-26.46,13.7V133.3l131,23.04A4.154,4.154,0,0,1,619.244,164.122Z" transform="translate(-487.057 -133.3)" fill="url(#linear-gradient-22)"/>
        <path id="Path_108" data-name="Path 108" d="M600.874,173.21l-27.69,14.335-86.126-52.44V133.76Z" transform="translate(-487.057 -132.876)" fill="url(#linear-gradient-23)"/>
        <path id="Path_109" data-name="Path 109" d="M538.5,203.125l-.269.154h-.019l-6.822,3.536-17.871,9.243-26.46-72.291V136.33l28.305,36.76L537,201.184l.019.019Z" transform="translate(-487.057 -130.508)" fill="url(#linear-gradient-24)"/>
      </g>
      <path id="Path_110" data-name="Path 110" d="M578.779,189.977c-2.512-.342-5.594-.571-5.023.571a20.873,20.873,0,0,0,2.477,3.2s-5.277,2.74-4.333,3.653,6.879-1,6.879-1,2.967,5.336,3.309,3.738a21.505,21.505,0,0,0,.115-4.579s3.768-1.927,4.11-2.5-3.655-1.37-3.655-1.37-.113-2.786-.626-2.934S578.779,189.977,578.779,189.977Z" transform="translate(-408.947 180.23)" fill="url(#linear-gradient-25)"/>
      <path id="Path_111" data-name="Path 111" d="M666.973,197.483c-2.35.951-5.14,2.283-4.078,2.99a20.891,20.891,0,0,0,3.738,1.545s-3.221,5-1.949,5.323,5.477-4.283,5.477-4.283,5.227,3.159,4.729,1.6a21.568,21.568,0,0,0-2.175-4.032s2.314-3.543,2.327-4.208-3.851.624-3.851.624-1.484-2.364-2-2.237S666.973,197.483,666.973,197.483Z" transform="translate(-325.195 185.812)" fill="url(#linear-gradient-26)"/>
    </g>
  </g>
</svg>
