<svg xmlns="http://www.w3.org/2000/svg" xmlns:xlink="http://www.w3.org/1999/xlink" width="442.915" height="425.393" viewBox="0 0 442.915 425.393">
  <defs>
    <linearGradient id="linear-gradient" x1="0.423" y1="-0.613" x2="0.57" y2="1.606" gradientUnits="objectBoundingBox">
      <stop offset="0" stop-color="#fff"/>
      <stop offset="1" stop-color="#d8e0ff"/>
    </linearGradient>
    <linearGradient id="linear-gradient-2" x1="1.605" y1="-1.634" x2="0.123" y2="1.228" xlink:href="#linear-gradient"/>
    <clipPath id="clip-path">
      <circle id="Ellipse_4" data-name="Ellipse 4" cx="158.338" cy="158.338" r="158.338" transform="translate(91.662 82.662)" fill="none"/>
    </clipPath>
    <clipPath id="clip-path-2">
      <path id="Path_37" data-name="Path 37" d="M238.878,314.312l28.5,22.736c5.235,4.175,10.63,8.144,15.918,12.252,4.739,3.682,10.278,7.067,13.346,12.412,8.14,14.182,13.872,29.961,22.173,44.281,2.934,5.063,5.268,15.039,12.714,15.025a8.182,8.182,0,0,0,5.859-2.835c2.847-3.124,4.457-8.131,2.676-12.157-4.211-9.517-8.7-18.906-12.9-28.428-4.07-9.231-6.938-19.292-12.141-27.966-2.863-4.774-9.81-11.318-13.029-15.855-6.686-9.421-8.8-11.651-15.483-21.073.613.872,4.373,1.9,5.416,2.4,4.49,2.14,8.949,4.346,13.408,6.549q7.326,3.618,14.635,7.268c4.015,2,8.814,3.594,11.574,7.236,10.628,14.029,23.171,26.5,35.034,39.464a5.881,5.881,0,0,0,2.016,1.632c5.813,2.339,11.11-6.991,9.435-11.649-2.232-6.21-8.536-12.038-12.173-17.544-4.3-6.514-8.349-13.2-12.99-19.487a80.926,80.926,0,0,0-13.239-14.384c-5.279-4.375-11.225-6.686-17.112-9.91-15.241-8.348-30.141-17.392-45.195-26.076Z" fill="none"/>
    </clipPath>
    <linearGradient id="linear-gradient-3" x1="0.5" x2="0.5" y2="1" gradientUnits="objectBoundingBox">
      <stop offset="0" stop-color="#9275ff"/>
      <stop offset="1" stop-color="#ffb3ff"/>
    </linearGradient>
    <filter id="Path_47" x="344.769" y="206.957" width="98.146" height="87.923" filterUnits="userSpaceOnUse">
      <feOffset dx="6" dy="18" input="SourceAlpha"/>
      <feGaussianBlur stdDeviation="6" result="blur"/>
      <feFlood flood-color="#af310b" flood-opacity="0.749"/>
      <feComposite operator="in" in2="blur"/>
      <feComposite in="SourceGraphic"/>
    </filter>
    <filter id="Path_55" x="0" y="163.38" width="116.781" height="67.011" filterUnits="userSpaceOnUse">
      <feOffset dx="6" dy="18" input="SourceAlpha"/>
      <feGaussianBlur stdDeviation="6" result="blur-2"/>
      <feFlood flood-color="#af310b" flood-opacity="0.749"/>
      <feComposite operator="in" in2="blur-2"/>
      <feComposite in="SourceGraphic"/>
    </filter>
    <filter id="Path_56" x="260.834" y="65.07" width="102.686" height="64.512" filterUnits="userSpaceOnUse">
      <feOffset dx="6" dy="18" input="SourceAlpha"/>
      <feGaussianBlur stdDeviation="6" result="blur-3"/>
      <feFlood flood-color="#af310b" flood-opacity="0.749"/>
      <feComposite operator="in" in2="blur-3"/>
      <feComposite in="SourceGraphic"/>
    </filter>
    <linearGradient id="linear-gradient-4" x1="0.48" y1="-1.338" x2="0.538" y2="3.3" xlink:href="#linear-gradient-3"/>
    <linearGradient id="linear-gradient-5" x1="0.582" y1="1.708" x2="0.487" y2="0.169" gradientUnits="objectBoundingBox">
      <stop offset="0" stop-color="#2a1f31"/>
      <stop offset="1" stop-color="#6a517f"/>
    </linearGradient>
    <linearGradient id="linear-gradient-6" x1="0.789" y1="2.079" x2="0.34" y2="-0.829" xlink:href="#linear-gradient-5"/>
    <linearGradient id="linear-gradient-7" x1="-0.465" y1="-1.051" x2="1.563" y2="2.259" gradientUnits="objectBoundingBox">
      <stop offset="0" stop-color="#ff7570"/>
      <stop offset="1" stop-color="#fbb"/>
    </linearGradient>
    <linearGradient id="linear-gradient-8" x1="-0.696" y1="-2.037" x2="0.707" y2="0.759" xlink:href="#linear-gradient-7"/>
    <linearGradient id="linear-gradient-9" x1="0.792" y1="-0.284" x2="0.976" y2="4.003" xlink:href="#linear-gradient-5"/>
    <linearGradient id="linear-gradient-10" x1="0.839" y1="0.004" x2="1.023" y2="4.293" xlink:href="#linear-gradient-5"/>
  </defs>
  <g id="Group_3679" data-name="Group 3679" transform="translate(33.607 55)">
    <g id="Group_3678" data-name="Group 3678" transform="translate(0 -55)">
      <path id="Path_2" data-name="Path 2" d="M442.792,118.381v343.7c-2.594,5.694-8.57,13.78-22.194,19.5a17.824,17.824,0,0,1-1.691.7,77.128,77.128,0,0,1-11.088,3.354c-11.7,2.652-27.095,3.822-47.348,2.158a157.149,157.149,0,0,1-24.693-3.9q-5.073-1.248-9.627-2.73a120.984,120.984,0,0,1-16.045-6.656c-.423-.234-.845-.442-1.268-.676-2.709-1.4-5.284-2.886-7.782-4.394-2.517-1.56-4.939-3.172-7.3-4.836-8.59-5.954-16.276-12.428-24.558-18.59a157.551,157.551,0,0,0-14.6-9.828c-1.115-.676-2.248-1.326-3.4-1.976-.019,0-.038-.026-.058-.026-9.416-5.174-22.771-7.514-38.509-6.76-25.884,1.2-58.167,10.79-89.833,29.771-6.245,3.718-12.473,7.826-18.6,12.3a249.566,249.566,0,0,0-36.4,32.422V76.52c30.819.162,13.855,0,30.9,0h-30.9l375,.271C442.858,119.252,442.669,77.224,442.792,118.381Z" transform="translate(-67.792 -76.52)" fill="url(#linear-gradient)"/>
    </g>
    <path id="Path_3" data-name="Path 3" d="M262.261,76.52H196.052A189.371,189.371,0,0,0,214.1,155.792c.757,1.626,1.542,3.2,2.355,4.793v.028c.308.617.617,1.205.953,1.822a191,191,0,0,0,80.645,80.982q1.219.673,2.439,1.261a189.244,189.244,0,0,0,83.056,20.463V198.932A124.256,124.256,0,0,1,262.261,76.52Z" transform="translate(-8.552 -79.837)" fill="url(#linear-gradient-2)"/>
    <g id="Group_38" data-name="Group 38" transform="translate(-67 -75)">
      <g id="Group_8" data-name="Group 8">
        <g id="Group_7" data-name="Group 7" clip-path="url(#clip-path)">
          <g id="Group_4" data-name="Group 4">
            <path id="Path_2-2" data-name="Path 2" d="M179.6,316.125c2.222-1.33-.168-16.565-2.215-17.815-.856-.522-3.248,5.443-2.678,6.365-5.934-1.773-8.33-12.619-12.217-15.226-2.126,2.661-2.245,7.493-2.6,10.72-.7,6.335.138,8.991,3.55,10.911,1.108.623,10.763,8.441,10.129,8.731C174.176,318.73,178.46,316.808,179.6,316.125Z" fill="#f3cebb"/>
            <path id="Path_3-2" data-name="Path 3" d="M183.793,313.322l-13.712,6.489-3.647,86.759h27.824Z" fill="#83232d"/>
            <path id="Path_4" data-name="Path 4" d="M167.6,316.85l.5,8.012,17.857-9.655-1.454-4.393Z" fill="#621a22"/>
          </g>
          <g id="Group_5" data-name="Group 5">
            <path id="Path_5" data-name="Path 5" d="M218.59,332.359c1.922-1.151-.146-14.333-1.916-15.414-.741-.452-2.811,4.708-2.317,5.507-5.135-1.535-7.208-10.919-10.571-13.174-1.839,2.3-1.943,6.483-2.25,9.275-.6,5.481.118,7.779,3.071,9.44.958.539,9.313,7.3,8.764,7.554C213.893,334.612,217.6,332.95,218.59,332.359Z" fill="#f3cebb"/>
            <path id="Path_6" data-name="Path 6" d="M222.213,329.933l-11.864,5.615-3.155,75.066h24.074Z" fill="#83232d"/>
            <path id="Path_7" data-name="Path 7" d="M208.2,332.986l.432,6.932,15.451-8.354-1.258-3.8Z" fill="#621a22"/>
          </g>
          <g id="Group_6" data-name="Group 6">
            <path id="Path_8" data-name="Path 8" d="M326.3,341.3c-2.222-1.33.168-16.565,2.214-17.815.856-.523,3.249,5.442,2.678,6.365,5.934-1.773,8.331-12.619,12.217-15.226,2.126,2.661,2.246,7.493,2.6,10.72.7,6.335-.137,8.991-3.55,10.911-1.107.622-10.763,8.44-10.129,8.73C331.73,343.9,327.447,341.978,326.3,341.3Z" fill="#f3cebb"/>
            <path id="Path_9" data-name="Path 9" d="M322.114,338.491l13.712,6.489,3.647,86.759H311.648Z" fill="#39a798"/>
            <path id="Path_10" data-name="Path 10" d="M338.31,342.02l-.5,8.012-17.857-9.655,1.454-4.393Z" fill="#2b7d72"/>
            <path id="Path_11" data-name="Path 11" d="M287.317,357.528c-1.923-1.151.145-14.332,1.916-15.414.74-.452,2.811,4.709,2.317,5.507,5.134-1.534,7.208-10.918,10.57-13.174,1.84,2.3,1.943,6.484,2.251,9.275.6,5.482-.119,7.78-3.072,9.441-.958.539-9.312,7.3-8.763,7.554C292.014,359.782,288.307,358.119,287.317,357.528Z" fill="#f3cebb"/>
            <path id="Path_12" data-name="Path 12" d="M283.693,355.1l11.864,5.615,3.155,75.067H274.638Z" fill="#39a798"/>
            <path id="Path_13" data-name="Path 13" d="M297.707,358.155l-.432,6.932-15.451-8.354,1.258-3.8Z" fill="#2b7d72"/>
          </g>
        </g>
      </g>
      <path id="Path_14" data-name="Path 14" d="M378.03,365.607s26.807-4.583,32.982,1.146c2.1,1.945-3.446,5.236-9.284,6.759-10.43,2.721-33.133,3.744-33.133,3.744Z" fill="#1b1b23"/>
      <path id="Path_15" data-name="Path 15" d="M339.542,408.539s14.826,19.752,14.722,28.174c-.035,2.859-4.345,2.291-9.392-1.015-9.017-5.908-21.13-22.5-21.13-22.5Z" fill="#1b1b23"/>
      <path id="Path_18" data-name="Path 18" d="M154.761,186.615c.976-1.7-6.212-10.868-8.023-10.939-.757-.03-.139,4.787.577,5.186-4.568,1.015-10.144-5.259-13.669-5.548-.423,2.539,1.278,5.772,2.232,8.032,1.873,4.437,3.4,5.882,6.361,5.892.96,0,10.211,1.6,9.9,2.031C152.138,190.333,154.257,187.488,154.761,186.615Z" fill="#f3cebb"/>
      <path id="Path_19" data-name="Path 19" d="M286.761,157.41l7.093-17.159,16.218,8.579-13.3,13.588Z" fill="#f3cebb"/>
      <g id="Group_10" data-name="Group 10">
        <path id="Path_20" data-name="Path 20" d="M302.01,153.795l-2.664,4.1a3.246,3.246,0,0,0,.953,4.492l3.031,1.97L315.521,145.6l-3.032-1.97a3.246,3.246,0,0,0-4.492.953l-2.664,4.1Z" fill="#f9ac30"/>
        <path id="Path_21" data-name="Path 21" d="M289.427,112.373c-3.123-.026-5.943,1.654-7.941,4.728l-.052.08-17.915,27.565-.052.08c-2,3.074-2.388,6.333-1.1,9.177,1.4,3.072,4.535,5.168,8.613,5.75,7.494,1.068,14.893-6.117,15.2-6.424l.714-.7h0l11.226-17.273h0l.353-.939c.153-.408,3.714-10.089-.305-16.5C295.991,114.419,292.8,112.4,289.427,112.373Zm5.937,7.3c1.611,2.57,1.543,6.087,1.2,8.584a26.737,26.737,0,0,1-.53,2.751l-13.951,21.468h0a26.849,26.849,0,0,1-2.3,1.6c-2.143,1.325-5.33,2.816-8.332,2.388-2.933-.418-5.141-1.816-6.058-3.836-.807-1.774-.5-3.9.856-5.994l.054-.082,17.912-27.56.053-.083c1.359-2.09,3.18-3.232,5.13-3.216C291.617,115.713,293.792,117.163,295.364,119.673Z" fill="#dd8d19"/>
        <path id="Path_22" data-name="Path 22" d="M304.938,149.289l-2.7-1.753a6.544,6.544,0,0,1-3.006-5.766c.332-7.375-5.592-16.659-15.473-23.081l-5.114-3.324L260.725,142.93l5.114,3.324c9.881,6.422,20.771,8.066,27.376,4.767a6.546,6.546,0,0,1,6.489.4l2.7,1.761,3.753-.729Z" fill="#f9ac30"/>
        <g id="Group_9" data-name="Group 9">
          <path id="Path_23" data-name="Path 23" d="M300.364,150.412l2.7,1.759-.66,1.016-2.7-1.76a6.543,6.543,0,0,0-6.489-.4c-6.605,3.3-17.495,1.654-27.376-4.768l-5.114-3.324,4.671-7.187,5.114,3.324c9.881,6.421,19.477,10.057,24.273,9.542A9.5,9.5,0,0,1,300.364,150.412Z" fill="#dd8d19"/>
          <path id="Path_24" data-name="Path 24" d="M303.206,151.954l-1.2,1.841-2.664,4.1a3.246,3.246,0,0,0,.953,4.492l3.031,1.97,3.861-5.94-3.032-1.97A3.248,3.248,0,0,1,303.206,151.954Z" fill="#dd8d19"/>
        </g>
        <path id="Path_25" data-name="Path 25" d="M305.819,157.278l-4.657,7.165a1.845,1.845,0,0,0,.541,2.552l5.516,3.585,15.569-23.955-5.516-3.585a1.844,1.844,0,0,0-2.552.542l-4.657,7.165" fill="#4f5b5e"/>
        <path id="Path_26" data-name="Path 26" d="M302.368,162.587l-1.206,1.856a1.844,1.844,0,0,0,.541,2.552l5.516,3.585,1.207-1.856-5.516-3.585A1.844,1.844,0,0,1,302.368,162.587Z" fill="#3b4547"/>
      </g>
      <path id="Path_27" data-name="Path 27" d="M301.766,151.59l-6.695-3.091a3.988,3.988,0,0,1-1.944-5.277h0a3.988,3.988,0,0,1,5.277-1.944l6.7,3.091a3.988,3.988,0,0,1,1.943,5.277h0A3.988,3.988,0,0,1,301.766,151.59Z" fill="#f3cebb"/>
      <path id="Path_28" data-name="Path 28" d="M288.959,155.015s-1.677-7.876-.12-9.609c.475-.528,1.646.421,2.177.893,1.725,1.535,2.838,8.173,2.838,8.173Z" fill="#f3cebb"/>
      <path id="Path_29" data-name="Path 29" d="M238.878,314.312l28.5,22.736c5.235,4.175,10.63,8.144,15.918,12.252,4.739,3.682,10.278,7.067,13.346,12.412,8.14,14.182,13.872,29.961,22.173,44.281,2.934,5.063,5.268,15.039,12.714,15.025a8.182,8.182,0,0,0,5.859-2.835c2.847-3.124,4.457-8.131,2.676-12.157-4.211-9.517-8.7-18.906-12.9-28.428-4.07-9.231-6.938-19.292-12.141-27.966-2.863-4.774-9.81-11.318-13.029-15.855-6.686-9.421-8.8-11.651-15.483-21.073.613.872,4.373,1.9,5.416,2.4,4.49,2.14,8.949,4.346,13.408,6.549q7.326,3.618,14.635,7.268c4.015,2,8.814,3.594,11.574,7.236,10.628,14.029,23.171,26.5,35.034,39.464a5.881,5.881,0,0,0,2.016,1.632c5.813,2.339,11.11-6.991,9.435-11.649-2.232-6.21-8.536-12.038-12.173-17.544-4.3-6.514-8.349-13.2-12.99-19.487a80.926,80.926,0,0,0-13.239-14.384c-5.279-4.375-11.225-6.686-17.112-9.91-15.241-8.348-30.141-17.392-45.195-26.076Z" fill="#ffdd5c"/>
      <path id="Path_31" data-name="Path 31" d="M280.121,272.478c-3.1,8.564-12.415,29.059-31.075,31.345-6.483.794-11.009-5.114-14.164-14.111,3.163,11.782,8.087,20.169,15.733,19.232,23.662-2.9,32.295-35.082,32.295-35.082A22.307,22.307,0,0,1,280.121,272.478Z" fill="#39a798"/>
      <path id="Path_32" data-name="Path 32" d="M244.6,220.873a6,6,0,0,0,.162,1.875q1.221,6.19,2.441,12.38c1.155,5.862,2.373,11.882,5.61,16.9,3.547,5.5,9.279,9.187,13.849,13.762a109.111,109.111,0,0,1,13.694,16.741c1.359,2.047,2.729,4.219,4.852,5.458,5.361,3.128,10.666-1.353,14.092-5.242a64.7,64.7,0,0,0,5.607-7.638c1.523-2.35,3.648-4.574,4.688-7.2,1.7-4.29-1.353-6.3-5.191-7.026-11.373-2.15-24.611-8.578-31.572-18.182-6.556-9.046-4.644-18.154.826-27a132.033,132.033,0,0,0,7.563-13.748c5.039-10.792,9.371-21.9,14.317-32.728.984-2.155,1.986-4.572,1.235-6.818a7.821,7.821,0,0,0-4.037-4.054c-1.835-.975-4.022-1.679-5.97-.955-1.776.661-2.933,2.346-3.917,3.966-10.3,16.954-14.869,37.845-29.409,51.342-2.245,2.084-4.686,3.944-7.112,5.814a4.436,4.436,0,0,0-1.583,1.758A2.535,2.535,0,0,0,244.6,220.873Z" fill="#c08fff"/>
      <path id="Path_33" data-name="Path 33" d="M304.4,260.892c-11.373-2.15-24.611-8.578-31.572-18.182-6.556-9.046-4.644-18.154.826-27a132.033,132.033,0,0,0,7.563-13.748c5.039-10.792,9.371-21.9,14.317-32.728.984-2.155,1.986-4.572,1.235-6.818a7.821,7.821,0,0,0-4.037-4.054c-1.835-.975-4.022-1.679-5.97-.955a5.654,5.654,0,0,0-2.129,1.494,8.246,8.246,0,0,1,5.217,1.164,7.815,7.815,0,0,1,4.038,4.054c.751,2.246-.251,4.663-1.235,6.818-4.946,10.833-9.278,21.936-14.318,32.728a131.659,131.659,0,0,1-7.563,13.748c-5.47,8.843-7.381,17.952-.825,27,6.96,9.6,20.2,16.032,31.571,18.182,3.839.725,6.893,2.736,5.192,7.026-1.04,2.621-3.165,4.845-4.688,7.2a64.7,64.7,0,0,1-5.607,7.638,27.412,27.412,0,0,1-4.055,3.834,21.131,21.131,0,0,0,6.936-5.537,64.7,64.7,0,0,0,5.607-7.638c1.523-2.35,3.648-4.574,4.688-7.2C311.292,263.628,308.237,261.618,304.4,260.892Z" fill="#ae2f3c" opacity="0.3"/>
      <path id="Path_34" data-name="Path 34" d="M375.851,374.419s29.829-3.31,35.583-6.966c0,0,.283,2.776-.71,4.332a114.264,114.264,0,0,1-19.117,4.145,148.1,148.1,0,0,1-19.217,1.306Z" fill="#060607"/>
      <g id="Group_13" data-name="Group 13">
        <g id="Group_12" data-name="Group 12" clip-path="url(#clip-path-2)">
          <g id="Group_11" data-name="Group 11" opacity="0.5">
            <path id="Path_35" data-name="Path 35" d="M340.216,412.535a8.183,8.183,0,0,1-5.859,2.834c-7.445.014-9.779-9.962-12.713-15.025-8.3-14.32-14.033-30.1-22.174-44.281-3.068-5.345-8.607-8.73-13.346-12.412-5.287-4.108-10.682-8.076-15.917-12.252l-26.779-21.36-4.55,4.273,28.5,22.736c5.235,4.175,10.63,8.144,15.918,12.252,4.739,3.682,10.278,7.067,13.346,12.412,8.14,14.182,13.872,29.961,22.173,44.281,2.934,5.063,5.268,15.039,12.714,15.025a8.182,8.182,0,0,0,5.859-2.835,13.516,13.516,0,0,0,3.13-6.007C340.421,412.3,340.321,412.419,340.216,412.535Z" fill="#bfa645"/>
            <path id="Path_36" data-name="Path 36" d="M371.419,371.608a5.892,5.892,0,0,1-2.015-1.633C357.541,357.012,345,344.54,334.369,330.511c-1.616-2.133-3.854-3.033-6.227-4.1-6.787-3.05-13.535-6.154-20.418-9q-3.953-1.635-7.918-3.241c-2.3-.932-5.518-2.143-8.075-1.935a31.236,31.236,0,0,0-5.219.469c6.318,2.736,8.365,3.82,10.575,4.9q4.129,2.016,8.249,4.052,7.326,3.618,14.635,7.268c4.015,2,8.814,3.594,11.574,7.236,10.628,14.029,23.171,26.5,35.034,39.463a5.872,5.872,0,0,0,2.016,1.633c4.458,1.794,8.608-3.274,9.548-7.835C376.344,371.449,373.931,372.618,371.419,371.608Z" fill="#bfa645"/>
          </g>
          <circle id="Ellipse_5" data-name="Ellipse 5" cx="10.494" cy="10.494" r="10.494" transform="translate(304.319 357.68) rotate(-80.984)" fill="#bfa645" opacity="0.2"/>
          <circle id="Ellipse_6" data-name="Ellipse 6" cx="10.494" cy="10.494" r="10.494" transform="translate(333.277 306.927)" fill="#bfa645" opacity="0.2"/>
        </g>
      </g>
      <path id="Path_38" data-name="Path 38" d="M227.8,222.8c5.643-.592,10.766,3.939,12.961,9.172s2.2,11.076,2.579,16.737,1.3,11.618,4.9,16.011c6.285,7.687,18.522,8.074,25.075,15.534a7.127,7.127,0,0,1,1.966,3.923,7.949,7.949,0,0,1-.73,3.568,31.558,31.558,0,0,1-18.6,17.9,6.322,6.322,0,0,1-3.279.473,7,7,0,0,1-2.617-1.357,24.579,24.579,0,0,1-10.516-12.48c-4.757-10.016-9.515-20.034-13.877-30.228a53.636,53.636,0,0,1-4.038-12.229c-1.505-9.149,1.5-18.428,5.242-26.913" fill="#d6a3ff" opacity="0.2"/>
      <path id="Path_39" data-name="Path 39" d="M235.673,222.7c-1.253-1.129-7.831-1.409-9.61-1.681-6.37-.974-13.725-1.75-19.783-4.384a92.074,92.074,0,0,1-13.882-7.893c-9.435-6.238-18.263-13.314-27.3-20.1-1.339-1-2.683-2-4.048-2.969-5.2-3.688-11.368,3.216-10.631,9.472.162,1.36,2.155,2.857,3.043,3.729,2.2,2.162,4.552,4.178,6.9,6.181,11.882,10.146,23.332,21.165,37.208,28.605,7.371,3.952,21.637,5.747,22.794,15.978.656,5.795.2,11.64.4,17.453.282,8.247.317,16.5.169,24.752-.214,11.9.343,27.187-5.574,37.977,0,0,27.544,12.757,42.041-7.539,3.481-4.873,4.017-10.967,2.6-16.683a55.217,55.217,0,0,0-6.937-15.261c-4.613-7.506-10.118-14.605-13.33-22.881-3.548-9.139-2.577-18.714-2.868-28.3-.106-3.5,1.5-13.768-1.152-16.425Z" fill="url(#linear-gradient-3)"/>
      <path id="Path_40" data-name="Path 40" d="M260,305.6a55.217,55.217,0,0,0-6.937-15.261c-4.613-7.506-10.118-14.605-13.33-22.881-3.548-9.139-2.577-18.714-2.868-28.3-.106-3.5,1.5-13.768-1.152-16.425l-.036-.034c-1.253-1.129-7.831-1.409-9.61-1.681-6.37-.974-13.725-1.75-19.783-4.384a92.074,92.074,0,0,1-13.882-7.893c-9.435-6.238-18.263-13.314-27.3-20.1-1.339-1-2.683-2-4.048-2.969-2.371-1.681-4.941-1.157-6.968.5a5.191,5.191,0,0,1,3.516,1.012c1.365.967,2.709,1.965,4.048,2.969,9.04,6.782,17.868,13.857,27.3,20.1a92.115,92.115,0,0,0,13.881,7.893c6.059,2.634,13.414,3.41,19.784,4.383,1.779.272,8.357.552,9.609,1.681l.037.035c2.649,2.657,1.046,12.929,1.152,16.425.291,9.586-.68,19.162,2.867,28.3,3.213,8.276,8.718,15.375,13.331,22.88a55.252,55.252,0,0,1,6.937,15.262c1.417,5.716.88,11.81-2.6,16.683a26.619,26.619,0,0,1-9.315,8.258,26.238,26.238,0,0,0,12.767-9.768C260.877,317.408,261.413,311.314,260,305.6Z" fill="#ae2f3c" opacity="0.3"/>
      <path id="Path_45" data-name="Path 45" d="M186.282,147.712s-7.3-9.387-16.947-7.877l-4,5.339S179.456,142.075,186.282,147.712Z" fill="#fa5c43"/>
      <path id="Path_46" data-name="Path 46" d="M333.5,218.8s-2.555-11.612-11.918-14.4l-5.907,3.1S329.763,210.779,333.5,218.8Z" fill="#fa5c43"/>
      <g transform="matrix(1, 0, 0, 1, 33.39, 20)" filter="url(#Path_47)">
        <path id="Path_47-2" data-name="Path 47" d="M390.162,226.957s8.083,41.3,40.986,51.923l21.16-10.489S402.74,255.657,390.162,226.957Z" transform="translate(-33.39 -20)" fill="#ffdd5d"/>
      </g>
      <path id="Path_48" data-name="Path 48" d="M147.583,236.09s-11.11-4.234-18.573,2.068l-.647,6.64S138.823,234.817,147.583,236.09Z" fill="#4cdfcb"/>
      <path id="Path_49" data-name="Path 49" d="M368.2,275.871s1.22,8.3,7.671,10.726l4.313-1.889S370.436,281.7,368.2,275.871Z" fill="#4cdfcb"/>
      <path id="Path_50" data-name="Path 50" d="M366.77,180.781s5.447,6.381,12.2,5l2.647-3.893S371.764,184.533,366.77,180.781Z" fill="#4cdfcb"/>
      <path id="Path_51" data-name="Path 51" d="M187.3,278.3s-4.852-7.944-12.492-7.617l-3.582,3.8S182.487,273.316,187.3,278.3Z" fill="#f54363"/>
      <path id="Path_52" data-name="Path 52" d="M224.944,115.613s7.643,5.314,14.5,1.934l1.745-4.924S231.36,118.234,224.944,115.613Z" fill="#f54363"/>
      <path id="Path_53" data-name="Path 53" d="M133.58,301.47s6.276-.463,8.44-5.159l-1.18-3.329S138.065,300.115,133.58,301.47Z" fill="#ffdd5d"/>
      <path id="Path_54" data-name="Path 54" d="M210,166.388s9.944-.734,13.372-8.174l-1.869-5.274S217.109,164.24,210,166.388Z" fill="#ffdd5d"/>
      <g transform="matrix(1, 0, 0, 1, 33.39, 20)" filter="url(#Path_55)">
        <path id="Path_55-2" data-name="Path 55" d="M126.174,214.391s-28.137-36.2-65.351-30.377L45.393,204.6S99.852,192.653,126.174,214.391Z" transform="translate(-33.39 -20)" fill="#f0f0f0"/>
      </g>
      <g transform="matrix(1, 0, 0, 1, 33.39, 20)" filter="url(#Path_56)">
        <path id="Path_56-2" data-name="Path 56" d="M306.227,104.6s34.275,18.927,61.514,1.82l5.172-21.354S334.2,112.794,306.227,104.6Z" transform="translate(-33.39 -20)" fill="#4cdfcb"/>
      </g>
    </g>
    <g id="Group_39" data-name="Group 39" transform="matrix(0.966, -0.259, 0.259, 0.966, 44.949, 0.653)">
      <g id="Group_30" data-name="Group 30" transform="translate(50.846 119.57)">
        <g id="Group_29" data-name="Group 29" transform="translate(0 56.131)">
          <path id="Path_85" data-name="Path 85" d="M622.974,196.75a14.813,14.813,0,0,1,14.814,14.772c-1.694.305-3.388.568-5.092.81.021-.253.032-.505.032-.768a9.753,9.753,0,0,0-9.753-9.753,9.6,9.6,0,0,0-3.44.631c-.326-1.789-.631-3.493-.936-5.04A14.982,14.982,0,0,1,622.974,196.75Z" transform="translate(-598.701 -159)" fill="#fff" opacity="0.1" style="mix-blend-mode: overlay;isolation: isolate"/>
          <path id="Path_86" data-name="Path 86" d="M583.68,160.87c1.61.084,3.293.2,5.008.316.358.021.726.053,1.094.074-.189.179-.368.358-.537.547a9.752,9.752,0,0,0,12.026,15.067,9.347,9.347,0,0,0,1.526-1.094,9.727,9.727,0,0,0,1.294-13.362c.673.063,1.315.116,1.9.168.41.042.8.074,1.168.105.179.011.347.032.5.042.2.021.4.042.589.053.168.011.337.021.484.042.232.021.452.042.652.053.295.021.547.042.779.063a14.557,14.557,0,0,1,1.052,5.471,14.809,14.809,0,1,1-27.545-7.544Z" transform="translate(-533.219 -160.87)" fill="#fff" opacity="0.1" style="mix-blend-mode: overlay;isolation: isolate"/>
          <path id="Path_87" data-name="Path 87" d="M640.591,166.542a6.384,6.384,0,0,0,4.85,5.461,5.606,5.606,0,0,0,1.4.179.356.356,0,0,0,.105.011,6.417,6.417,0,0,0,6.418-6.418,5.757,5.757,0,0,0-.095-1.052l3.314-.442a9.984,9.984,0,0,1,.116,1.494,9.753,9.753,0,0,1-9.753,9.753,9.426,9.426,0,0,1-1.641-.137c-.158-.032-.316-.053-.463-.095a9.76,9.76,0,0,1-7.365-7.218A12.811,12.811,0,0,1,640.591,166.542Z" transform="translate(-637.477 -160.692)" fill="#fff" opacity="0.1" style="mix-blend-mode: overlay;isolation: isolate"/>
          <path id="Path_88" data-name="Path 88" d="M599.43,192.29a9.76,9.76,0,0,1,9.753,9.753,9.216,9.216,0,0,1-.2,1.957q-1.973.631-4.009,1.263a6.334,6.334,0,0,0,.873-3.22,6.418,6.418,0,1,0-9.364,5.692q-2.02.568-4.072,1.073a9.755,9.755,0,0,1,7.018-16.518Z" transform="translate(-539.679 -159.232)" fill="#fff" opacity="0.1" style="mix-blend-mode: overlay;isolation: isolate"/>
        </g>
        <path id="Path_91" data-name="Path 91" d="M611.981,163.775c1.284,3.945,4.282,9.448,11.068,9.606,9.616.231,11.784-6.334,10.248-12.7a50.251,50.251,0,0,0-5.713.074l-8.007,2Z" transform="translate(-587.697 -104.751)" fill="url(#linear-gradient-4)"/>
        <path id="Path_92" data-name="Path 92" d="M610.962,136.832c.463.863,1.01,1.747,1.5,2.662a27.975,27.975,0,0,0,1.989,3.093c1.883,2.641,4.419,5.692,6.481,8.2.758.915,1.452,1.768,2.031,2.494,2.809,3.567,5.9,6.66,9.09,3.84l14.53-24.935a23.372,23.372,0,0,0,2.778-10.458,25.873,25.873,0,0,0-1.936-11.763,9.977,9.977,0,0,0-4.114,4.377c.063-.358.8-4.135-.011-6.818-3.272,2.63-35.436,6.1-30.28,22.126C608.668,131.582,609.437,134.065,610.962,136.832Z" transform="translate(-601.019 -107.52)" fill="url(#linear-gradient-5)"/>
        <path id="Path_93" data-name="Path 93" d="M609.8,136.129c.463.863,1.01,1.747,1.5,2.662a27.947,27.947,0,0,0,1.989,3.093c1.883,2.641,4.419,5.692,6.481,8.2.758.915,1.452,1.768,2.031,2.494,2.809,3.567,5.9,6.66,9.09,3.84l14.53-24.936A23.372,23.372,0,0,0,648.2,121.02c-3.177,5.05-8.585,7.249-16.276,8.207-9.753,1.22-13.12-.189-15.75,4.408C614.9,135.876,612.3,136.6,609.8,136.129Z" transform="translate(-599.854 -106.816)" fill="url(#linear-gradient-6)"/>
        <path id="Path_94" data-name="Path 94" d="M629.1,156.007a47.985,47.985,0,0,0,1.407,9.937,7.418,7.418,0,0,1-7.219,4.313c-5.532-.094-7.032-4.031-7.032-4.031s-.375-12-1.688-15.75Z" transform="translate(-587.191 -105.281)" fill="url(#linear-gradient-7)"/>
        <path id="Path_95" data-name="Path 95" d="M609.639,145.393c.442,3.5,2.82,6.239,5.25,5.681,5.566,9.564,13.194,9.816,17,9,2.788-.589,5.408-3.125,6.881-6.681a16.441,16.441,0,0,0,1.126-4.314,40.228,40.228,0,0,0-.126-8.291A105.335,105.335,0,0,0,637.9,129.39c-8.691,6.681-25.135,7.06-25.135,7.06a10.751,10.751,0,0,1,1.883,3.251c.684,1.936.558,7.565.558,7.565a5.855,5.855,0,0,0-1.494-2.388C612.648,143.93,609.208,141.889,609.639,145.393Z" transform="translate(-591.511 -106.38)" fill="url(#linear-gradient-8)"/>
        <path id="Path_98" data-name="Path 98" d="M616.758,141.342c.984,2.343,2.671,4.922,2.39,6s-3,1.077-3,1.077" transform="translate(-577.515 -105.757)" fill="none" stroke="#ff7570" stroke-linecap="round" stroke-linejoin="round" stroke-width="1"/>
        <path id="Path_99" data-name="Path 99" d="M623.757,143.151c.092,1.018.73,1.793,1.427,1.731s1.186-.94,1.094-1.959-.731-1.793-1.428-1.73S623.664,142.133,623.757,143.151Z" transform="translate(-592.619 -105.765)" fill="url(#linear-gradient-9)"/>
        <path id="Path_100" data-name="Path 100" d="M612.574,141.4c.091,1.018.731,1.793,1.427,1.73s1.186-.94,1.094-1.958-.731-1.793-1.428-1.73S612.481,140.377,612.574,141.4Z" transform="translate(-569.67 -105.856)" fill="url(#linear-gradient-10)"/>
        <path id="Path_101" data-name="Path 101" d="M615.985,137.452a3.2,3.2,0,0,0-3.577.488" transform="translate(-570.387 -105.978)" fill="none" stroke="#2a1f31" stroke-linecap="round" stroke-miterlimit="10" stroke-width="1"/>
        <path id="Path_102" data-name="Path 102" d="M627.56,138.917a3.2,3.2,0,0,0-3.448,1.073" transform="translate(-594.276 -105.89)" fill="none" stroke="#2a1f31" stroke-linecap="round" stroke-miterlimit="10" stroke-width="1"/>
        <path id="Path_103" data-name="Path 103" d="M623.119,152.9c-1.942,1.881-4.984,1.264-5.534.046" transform="translate(-582.968 -105.154)" fill="none" stroke="#f94848" stroke-linecap="round" stroke-linejoin="round" stroke-width="1"/>
      </g>
    </g>
  </g>
</svg>
