<svg id="Group_27" data-name="Group 27" xmlns="http://www.w3.org/2000/svg" width="48.792" height="48.792" viewBox="0 0 48.792 48.792">
  <circle id="Ellipse_10" data-name="Ellipse 10" cx="24.396" cy="24.396" r="24.396" fill="#fafafa"/>
  <path id="ic_directions_subway_24px" d="M13.158,2C8.1,2,4,2.572,4,6.579V17.454a4.011,4.011,0,0,0,4.007,4.007L6.29,23.178v.572H20.027v-.572l-1.717-1.717a4.011,4.011,0,0,0,4.007-4.007V6.579C22.316,2.572,18.218,2,13.158,2ZM8.007,19.171a1.717,1.717,0,1,1,1.717-1.717A1.715,1.715,0,0,1,8.007,19.171ZM12.013,12.3H6.29V6.579h5.724Zm6.3,6.869a1.717,1.717,0,1,1,1.717-1.717A1.715,1.715,0,0,1,18.309,19.171ZM20.027,12.3H14.3V6.579h5.724Z" transform="translate(11.488 11.216)" fill="#2fbbf0"/>
</svg>
