<svg xmlns="http://www.w3.org/2000/svg" width="28.151" height="19.45" viewBox="0 0 28.151 19.45">
  <g id="Group_3704" data-name="Group 3704" transform="translate(-251 -767.345)">
    <g id="train-ticket" transform="translate(251 767.345)">
      <path id="Path_231" data-name="Path 231" d="M26.9,0H13.38a.481.481,0,0,0-.416.527.481.481,0,0,0,.416.526h4.773V6.758a.738.738,0,0,0,.564.781A2.069,2.069,0,0,1,20.3,9.725a2.069,2.069,0,0,1-1.586,2.186.738.738,0,0,0-.564.78V18.4H1.254a.488.488,0,0,1-.421-.533V1.587a.488.488,0,0,1,.421-.533H11.716a.481.481,0,0,0,.416-.526A.481.481,0,0,0,11.716,0H1.254A1.452,1.452,0,0,0,0,1.587V17.864A1.452,1.452,0,0,0,1.254,19.45H26.9a1.452,1.452,0,0,0,1.254-1.587V1.587A1.452,1.452,0,0,0,26.9,0Zm.421,17.864a.488.488,0,0,1-.421.533H18.986V12.93a3.139,3.139,0,0,0,2.15-3.2,3.139,3.139,0,0,0-2.15-3.2V1.053H26.9a.488.488,0,0,1,.421.533Zm0,0" transform="translate(0 0)" fill="#7a8fa6"/>
      <path id="Path_232" data-name="Path 232" d="M369.027,203.34h-5.474a.541.541,0,0,0,0,1.053h5.474a.541.541,0,0,0,0-1.053Zm0,0" transform="translate(-343.17 -189.191)" fill="#7a8fa6"/>
      <path id="Path_233" data-name="Path 233" d="M369.027,31.789h-5.474a.541.541,0,0,0,0,1.053h5.474a.541.541,0,0,0,0-1.053Zm0,0" transform="translate(-343.17 -29.577)" fill="#7a8fa6"/>
      <path id="Path_234" data-name="Path 234" d="M391.276,63.574H387.1a.541.541,0,0,0,0,1.053h4.18a.541.541,0,0,0,0-1.053Zm0,0" transform="translate(-365.419 -59.151)" fill="#7a8fa6"/>
      <path id="Path_235" data-name="Path 235" d="M369.027,232.1h-5.474a.541.541,0,0,0,0,1.053h5.474a.541.541,0,0,0,0-1.053Zm0,0" transform="translate(-343.17 -215.947)" fill="#7a8fa6"/>
      <g id="Group_3703" data-name="Group 3703" transform="translate(4.827 2.722)">
        <path id="Path_236" data-name="Path 236" d="M96.211,46.267V41.453a2.166,2.166,0,0,0-1.925-2.34H90.637a2.166,2.166,0,0,0-1.925,2.34v4.814a2.488,2.488,0,0,0,.895,1.974L87.96,49.869a.625.625,0,0,0-.072.739.361.361,0,0,0,.584.091l.5-.5c.024,0,6.934,0,6.975,0,.526.519.573.607.758.607.393,0,.569-.633.256-.942l-1.647-1.628A2.488,2.488,0,0,0,96.211,46.267Zm-5.574-6.1h3.649A1.157,1.157,0,0,1,95.357,41.2H89.566A1.157,1.157,0,0,1,90.637,40.167Zm-1.093,2.085h2.5v1.285h-2.5Zm.494,6.9.555-.548c.08,0,3.663,0,3.738,0l.554.548Zm5.341-2.885a1.2,1.2,0,0,1-1.091,1.285H90.635a1.2,1.2,0,0,1-1.091-1.285V44.589h5.834Zm0-2.731h-2.5V42.251h2.5Zm0,0" transform="translate(-87.8 -39.113)" fill="#7a8fa6"/>
      </g>
      <path id="Path_237" data-name="Path 237" d="M155.959,122.276H157a.541.541,0,0,0,0-1.053h-1.041a.541.541,0,0,0,0,1.053Zm0,0" transform="translate(-146.991 -112.788)" fill="#7a8fa6"/>
      <path id="Path_238" data-name="Path 238" d="M155.959,142.635H157a.541.541,0,0,0,0-1.053h-1.041a.541.541,0,0,0,0,1.053Zm0,0" transform="translate(-146.991 -131.73)" fill="#7a8fa6"/>
      <path id="Path_239" data-name="Path 239" d="M128.2,127.88a.623.623,0,1,1-.606-.767A.7.7,0,0,1,128.2,127.88Zm0,0" transform="translate(-120.002 -118.268)" fill="#7a8fa6"/>
      <path id="Path_240" data-name="Path 240" d="M197.352,127.88a.623.623,0,1,1-.606-.767A.7.7,0,0,1,197.352,127.88Zm0,0" transform="translate(-185.356 -118.268)" fill="#7a8fa6"/>
      <path id="Path_241" data-name="Path 241" d="M250.617,225.058a.481.481,0,0,0,.416.527h2.793a.541.541,0,0,0,0-1.053h-2.793A.481.481,0,0,0,250.617,225.058Zm0,0" transform="translate(-236.837 -208.908)" fill="#7a8fa6"/>
      <path id="Path_242" data-name="Path 242" d="M29.029,224.531a.541.541,0,0,0,0,1.053H39.571a.541.541,0,0,0,0-1.053Zm0,0" transform="translate(-27.04 -208.908)" fill="#7a8fa6"/>
    </g>
  </g>
</svg>
