<svg xmlns="http://www.w3.org/2000/svg" width="17.678" height="22" viewBox="0 0 17.678 22">
  <path id="Icon_awesome-user-astronaut" data-name="Icon awesome-user-astronaut" d="M2.525,9.625h.533A6.316,6.316,0,0,0,8.839,13.75,6.316,6.316,0,0,0,14.62,9.625h.533a.663.663,0,0,0,.631-.687V4.813a.663.663,0,0,0-.631-.687H14.62A6.316,6.316,0,0,0,8.839,0,6.316,6.316,0,0,0,3.058,4.125H2.525a.663.663,0,0,0-.631.688V8.938A.663.663,0,0,0,2.525,9.625ZM4.1,5.844A1.813,1.813,0,0,1,6,4.125H11.68a1.813,1.813,0,0,1,1.894,1.719V6.875A3.968,3.968,0,0,1,9.786,11H7.892A3.968,3.968,0,0,1,4.1,6.875ZM6.945,8.938l.474-1.547,1.421-.516L7.418,6.359,6.945,4.813,6.471,6.359l-1.421.516,1.421.516Zm5.982,4.873a7.012,7.012,0,0,1-8.176,0A5.6,5.6,0,0,0,0,19.525v.412A1.984,1.984,0,0,0,1.894,22H5.051V19.25a1.321,1.321,0,0,1,1.263-1.375h5.051a1.321,1.321,0,0,1,1.263,1.375V22h3.157a1.984,1.984,0,0,0,1.894-2.062v-.412A5.969,5.969,0,0,0,15.108,14.6,4.776,4.776,0,0,0,12.927,13.81Zm-2.194,5.44a.69.69,0,1,0,.631.688A.663.663,0,0,0,10.733,19.25Zm-3.788,0a.663.663,0,0,0-.631.688V22H7.576V19.938A.663.663,0,0,0,6.945,19.25Z" fill="#eaaa73"/>
</svg>
