<svg xmlns="http://www.w3.org/2000/svg" xmlns:xlink="http://www.w3.org/1999/xlink" width="375.188" height="401.757" viewBox="0 0 375.188 401.757">
  <defs>
    <linearGradient id="linear-gradient" x1="0.423" y1="-0.613" x2="0.57" y2="1.606" gradientUnits="objectBoundingBox">
      <stop offset="0" stop-color="#fff"/>
      <stop offset="1" stop-color="#d8e0ff"/>
    </linearGradient>
    <linearGradient id="linear-gradient-2" x1="1.605" y1="-1.634" x2="0.123" y2="1.228" xlink:href="#linear-gradient"/>
    <linearGradient id="linear-gradient-3" x1="0.002" y1="2.117" x2="0.752" y2="-0.318" gradientUnits="objectBoundingBox">
      <stop offset="0" stop-color="#669fcd"/>
      <stop offset="1" stop-color="#a7ff95"/>
    </linearGradient>
    <linearGradient id="linear-gradient-4" x1="0.118" y1="1.092" x2="0.803" y2="-0.054" gradientUnits="objectBoundingBox">
      <stop offset="0" stop-color="#667aff"/>
      <stop offset="1" stop-color="#8dcfff"/>
    </linearGradient>
    <linearGradient id="linear-gradient-5" x1="1.125" y1="-0.586" x2="0.293" y2="0.776" gradientUnits="objectBoundingBox">
      <stop offset="0" stop-color="#ff7570"/>
      <stop offset="1" stop-color="#fbb"/>
    </linearGradient>
    <linearGradient id="linear-gradient-6" x1="0.117" y1="-2.016" x2="0.816" y2="2.53" xlink:href="#linear-gradient-5"/>
    <linearGradient id="linear-gradient-7" x1="0.48" y1="1.145" x2="0.525" y2="-0.604" gradientUnits="objectBoundingBox">
      <stop offset="0" stop-color="#2a1f31"/>
      <stop offset="1" stop-color="#6a517f"/>
    </linearGradient>
    <linearGradient id="linear-gradient-8" x1="0.467" y1="1.935" x2="0.612" y2="-3.58" gradientUnits="objectBoundingBox">
      <stop offset="0" stop-color="#9275ff"/>
      <stop offset="1" stop-color="#ffb3ff"/>
    </linearGradient>
    <linearGradient id="linear-gradient-9" x1="0.532" y1="1.257" x2="0.455" y2="-0.233" xlink:href="#linear-gradient-8"/>
    <linearGradient id="linear-gradient-10" x1="0.721" y1="0.668" x2="1.987" y2="-0.674" gradientUnits="objectBoundingBox">
      <stop offset="0" stop-color="#9275ff"/>
      <stop offset="1" stop-color="#ffccd3"/>
    </linearGradient>
    <linearGradient id="linear-gradient-11" x1="0.738" y1="1.218" x2="-0.241" y2="-2.054" xlink:href="#linear-gradient-10"/>
    <linearGradient id="linear-gradient-12" x1="1.026" y1="1.77" x2="0.239" y2="0.17" xlink:href="#linear-gradient-5"/>
    <linearGradient id="linear-gradient-13" x1="1.242" y1="-1.095" x2="-2.138" y2="5.63" xlink:href="#linear-gradient-5"/>
    <linearGradient id="linear-gradient-14" x1="0.405" y1="0.524" x2="1.049" y2="-2.213" xlink:href="#linear-gradient-7"/>
    <linearGradient id="linear-gradient-15" x1="0.516" y1="1.242" x2="0.434" y2="-1.787" xlink:href="#linear-gradient-5"/>
    <linearGradient id="linear-gradient-16" x1="0.435" y1="0.047" x2="0.63" y2="1.146" gradientUnits="objectBoundingBox">
      <stop offset="0" stop-color="#ff6d79"/>
      <stop offset="1" stop-color="#ff8b88"/>
    </linearGradient>
  </defs>
  <g id="Group_10496" data-name="Group 10496" transform="translate(0 0.365)">
    <path id="Path_2" data-name="Path 2" d="M442.98,76.52l-.188,363.807c-2.594,5.373-8.57,13-22.194,18.4-.538.245-1.114.466-1.691.662a80.593,80.593,0,0,1-11.088,3.165c-11.7,2.5-27.095,3.606-47.348,2.036a165.837,165.837,0,0,1-24.693-3.68q-5.073-1.178-9.627-2.576a125.109,125.109,0,0,1-16.045-6.281c-.423-.221-.845-.417-1.268-.638-2.709-1.325-5.284-2.723-7.782-4.146-2.517-1.472-4.939-2.993-7.3-4.563-8.59-5.618-16.276-11.727-24.558-17.542a158.479,158.479,0,0,0-14.6-9.274c-1.115-.638-2.248-1.251-3.4-1.865-.019,0-.038-.024-.058-.024-9.416-4.882-22.771-7.09-38.509-6.379-25.884,1.129-58.167,10.181-89.833,28.091-6.245,3.508-12.473,7.385-18.6,11.6a245.5,245.5,0,0,0-36.4,30.593V116.019c0-21.81.1.095,0-39.864l344.1.365C428.956,76.52,406.814,76.519,442.98,76.52Z" transform="translate(-67.792 -76.52)" fill="url(#linear-gradient)"/>
    <path id="Path_3" data-name="Path 3" d="M262.261,76.52H196.052A243.957,243.957,0,0,0,214.1,167.426c.757,1.864,1.542,3.665,2.355,5.5v.032c.308.707.617,1.382.953,2.089,17.94,39.6,46.167,72.134,80.645,92.867q1.219.771,2.439,1.447a170.128,170.128,0,0,0,83.056,23.466V216.9C316.866,215.1,263.214,153.122,262.261,76.52Z" transform="translate(-8.552 -76.52)" fill="url(#linear-gradient-2)"/>
    <path id="Path_4" data-name="Path 4" d="M251.739,124.2V318.227c-4.593-2.537-9.377-5-14.6-7.264-1.115-.5-2.248-.98-3.4-1.46v.019a.238.238,0,0,1-.058-.038c-9.416-3.824-22.771-5.553-38.509-5-25.884.884-58.167,7.975-89.833,22-6.245,2.748-12.473,5.784-18.6,9.089V124.2a13.646,13.646,0,0,1,13.643-13.643H238.1A13.646,13.646,0,0,1,251.739,124.2Z" transform="translate(-50.336 41.851)" fill="#fff"/>
    <g id="Group_1" data-name="Group 1" transform="translate(54.988 294.963)">
      <path id="Path_5" data-name="Path 5" d="M226.126,184.744H98.508a2.1,2.1,0,0,0-2.1,2.1h0a2.1,2.1,0,0,0,2.1,2.1H226.126a2.1,2.1,0,0,0,2.1-2.1h0A2.1,2.1,0,0,0,226.126,184.744Z" transform="translate(-96.408 -184.744)" fill="#8bbcff" opacity="0.25"/>
      <path id="Path_6" data-name="Path 6" d="M226.126,190.942H98.508a2.1,2.1,0,0,0-2.1,2.1h0a2.1,2.1,0,0,0,2.1,2.1H226.126a2.1,2.1,0,0,0,2.1-2.1h0A2.1,2.1,0,0,0,226.126,190.942Z" transform="translate(-96.408 -179.032)" fill="#8bbcff" opacity="0.25"/>
      <path id="Path_7" data-name="Path 7" d="M226.126,197.141H98.508a2.1,2.1,0,0,0-2.1,2.1h0a2.1,2.1,0,0,0,2.1,2.1H226.126a2.1,2.1,0,0,0,2.1-2.1h0A2.1,2.1,0,0,0,226.126,197.141Z" transform="translate(-96.408 -173.319)" fill="#8bbcff" opacity="0.25"/>
      <path id="Path_8" data-name="Path 8" d="M228.214,210.565v14.892c-1.115-.5-2.248-.98-3.4-1.46v.019a.238.238,0,0,1-.058-.038c-9.416-3.824-22.771-5.553-38.509-5-25.884.884-58.167,7.975-89.833,22V210.565a7.215,7.215,0,0,1,7.223-7.225H220.988A7.217,7.217,0,0,1,228.214,210.565Z" transform="translate(-96.403 -167.606)" fill="#8bbcff" opacity="0.25"/>
    </g>
    <g id="Group_2" data-name="Group 2" transform="translate(66.972 198.976)">
      <path id="Path_9" data-name="Path 9" d="M211.624,144.194V206.06a9.408,9.408,0,0,1-9.423,9.4H112.046a9.39,9.39,0,0,1-9.4-9.4V144.194a9.4,9.4,0,0,1,9.4-9.4H202.2A9.42,9.42,0,0,1,211.624,144.194Z" transform="translate(-102.644 -134.792)" fill="url(#linear-gradient-3)"/>
      <path id="Path_10" data-name="Path 10" d="M205.357,166.886v23.05a8.672,8.672,0,0,1-8.672,8.67H113.52a8.672,8.672,0,0,1-8.672-8.67V179.7l17.836-17.852a5.369,5.369,0,0,1,7.594,0l15.115,15.115a5.369,5.369,0,0,0,7.592,0L180.4,149.54a5.368,5.368,0,0,1,7.59,0Z" transform="translate(-100.613 -122.649)" fill="#fff" opacity="0.45" style="mix-blend-mode: overlay;isolation: isolate"/>
      <path id="Path_11" data-name="Path 11" d="M144.055,146.654A5.357,5.357,0,1,1,138.7,141.3,5.359,5.359,0,0,1,144.055,146.654Z" transform="translate(-74.355 -128.797)" fill="#fff" opacity="0.45" style="mix-blend-mode: overlay;isolation: isolate"/>
    </g>
    <g id="Group_3" data-name="Group 3" transform="translate(0 198.972)">
      <path id="Path_12" data-name="Path 12" d="M122.79,144.206v61.856a9.408,9.408,0,0,1-9.437,9.4H67.792V134.79h45.561A9.437,9.437,0,0,1,122.79,144.206Z" transform="translate(-67.792 -134.79)" fill="url(#linear-gradient-4)"/>
      <path id="Path_13" data-name="Path 13" d="M118.543,166.88v23.059a8.67,8.67,0,0,1-8.668,8.666H67.792V175.335L93.6,149.547a5.352,5.352,0,0,1,7.59,0l3,3Z" transform="translate(-67.792 -122.644)" fill="#fff" opacity="0.45" style="mix-blend-mode: overlay;isolation: isolate"/>
      <path id="Path_14" data-name="Path 14" d="M81.106,146.654a5.357,5.357,0,1,1-5.357-5.357A5.358,5.358,0,0,1,81.106,146.654Z" transform="translate(-65.397 -128.793)" fill="#fff" opacity="0.45" style="mix-blend-mode: overlay;isolation: isolate"/>
    </g>
    <g id="Group_4" data-name="Group 4" transform="translate(121.464 140.328)">
      <path id="Path_16" data-name="Path 16" d="M258.415,209.083s-35.89,14.36-35.788,9.258c.123-5.121-4.979-20.2-4.979-20.2s-13.868,7.661-21.3-4.629C188.93,181.223,179.855,153,181.33,138.758c0,0,5.407,3.032,8.336,2.786-1.1,6.084,2.909,17.658,4.016,19.358,1.086,1.7,1.947-.246,1.947-7.191,0-6.924,3.891-9.977,9.237-9.239,5.367.717,7.415,11.8,5.717,16.8-1.7,4.977-7.292,1.945-6.679,4.731.6,2.807,13.745,19.727,27.246,24.46a28.486,28.486,0,0,0,3.257.942c7.927,1.864,13.253-.43,15.751-2.008h.021c.286-.184.553-.369.759-.511l.163-.123a5.541,5.541,0,0,0,.553-.452l.184-.163.43,1.372Z" transform="translate(-84.765 -72.49)" fill="url(#linear-gradient-5)"/>
      <path id="Path_17" data-name="Path 17" d="M240.921,184.832s-35.89,14.36-35.788,9.258c.123-5.121-4.979-20.2-4.979-20.2,6.209-1.76,10.8-4.731,16.758-6.739a40.891,40.891,0,0,1,15.751-2.008h.021l2.091.123Z" transform="translate(-67.271 -48.239)" fill="url(#linear-gradient-6)"/>
      <path id="Path_18" data-name="Path 18" d="M288.114,160.871c-.511,4.508-2.11,10.038-5.223,16.777-11.862,25.728-25.319,42.281-25.319,42.281l-.184.163-.553.452-.163.123c-2.294,1.658-9.035,5.346-19.789,1.578-13.5-4.733-26.651-21.653-27.246-24.46-.613-2.786,4.979.246,6.679-4.731,1.7-5-.35-16.082-5.717-16.8-5.346-.738-9.237,2.316-9.237,9.239,0,6.945-.861,8.891-1.947,7.191-1.107-1.7-5.121-13.274-4.016-19.358-2.929.246-8.336-2.786-8.336-2.786-6.883-3.934-10.632-15.056-11.758-25.894-.738-7.271-.307-14.422,1.166-19.195a25.418,25.418,0,0,1,4.506,4.324c-.225-.84-3.584-13.173,2.235-25.5,4.752,3.461,48.568,5.653,48.568,5.653a22.311,22.311,0,0,1-6.268-4.752c12.291,1.1,60.473-5.655,50.619,37.425C282.461,143.542,289.59,148.171,288.114,160.871Z" transform="translate(-90.498 -104.272)" fill="url(#linear-gradient-7)"/>
      <path id="Path_19" data-name="Path 19" d="M199.393,193.049c3.1-7.485.183-12.961,10.588-12.6s23.518-4.652,29.831-7.709,6.5,3.1,9.6,10.152-8.761,14.533-8.761,14.533Z" transform="translate(-67.972 -41.91)" fill="url(#linear-gradient-8)"/>
      <path id="Path_20" data-name="Path 20" d="M354.862,246.616v10.377c-.173.211-.346.423-.538.634a34.9,34.9,0,0,1-5.8,5.265,55.4,55.4,0,0,1-17.218,8.09l.519,6.188.845,10.4c-.538.192-1.115.365-1.691.519a98.335,98.335,0,0,1-11.088,2.479c-11.7,1.96-27.095,2.825-47.348,1.595a208.927,208.927,0,0,1-24.693-2.882q-5.073-.922-9.627-2.018a147.457,147.457,0,0,1-16.045-4.919,6.625,6.625,0,0,0-1.038.538,10.052,10.052,0,0,1-.231-1.038c-2.709-1.038-5.284-2.133-7.782-3.247-2.517-1.153-4.939-2.344-7.3-3.574-8.59-4.4-16.276-9.185-24.558-13.739-4.593-2.537-9.377-5-14.6-7.264-1.115-.5-2.248-.98-3.4-1.46v.019a.238.238,0,0,1-.058-.038.06.06,0,0,1,.019-.038v-.019c.173-.4,1.441-3.324,3.44-7.706,2.056-4.535,4.9-10.626,8.148-17.045,2.037-3.978,4.208-8.09,6.457-12.029.115-.192.211-.384.327-.576,4.093-7.206,8.378-13.836,12.279-18.063,4.593-5,11.952-7.3,20.2-8.282a120.605,120.605,0,0,1,15.469-.634q2.306.029,4.554.115c9.2.288,17.717.942,23.117.211a88.263,88.263,0,0,0,18.467-4.631c2.267-.826,4.439-1.691,6.553-2.575h.019c1.9-.769,3.766-1.576,5.553-2.344,2.5-1.057,4.919-2.114,7.244-3.036,4.977-1.922,9.685-3.363,14.374-3.517a24.774,24.774,0,0,1,8.032,1.038c11.068,3.42,18.659,14.8,26.057,35.338,1.941,5.438,3.882,11.491,5.842,18.217C351.154,232.973,352.96,239.526,354.862,246.616Z" transform="translate(-101.326 -41.528)" fill="url(#linear-gradient-9)"/>
      <path id="Path_21" data-name="Path 21" d="M200.467,246.744c-2.709-1.038-5.284-2.133-7.782-3.247-2.517-1.153-4.939-2.344-7.3-3.574,6-13.355,9.627-26.153,11.587-29.228,1.5-2.364-.384,11.664,2.133,28.67C199.448,241.787,199.89,244.246,200.467,246.744Z" transform="translate(-80.885 -6.433)" fill="url(#linear-gradient-10)"/>
      <path id="Path_22" data-name="Path 22" d="M273.06,237.636a55.488,55.488,0,0,1-17.206,8.09c-1.086-21.549-9.485-37.61-10.571-43.816-1.107-6.207,2.171,1.474,10.571,16.8C259.725,225.753,266.669,232.473,273.06,237.636Z" transform="translate(-25.871 -16.276)" fill="url(#linear-gradient-11)"/>
      <path id="Path_23" data-name="Path 23" d="M192.935,267.825v.019a.24.24,0,0,1-.058-.038c-9.416-3.824-22.771-5.553-38.509-5-.98-3.536-1.941-6.918-2.863-10.108-.557-1.922-1.1-3.766-1.633-5.534-.807-2.748-1.595-5.342-2.364-7.706-.48-1.48-.942-2.9-1.384-4.208-1.057-3.075-2.037-5.669-2.94-7.706a28.643,28.643,0,0,0-1.595-3.113c-.231-.365-.442-.73-.673-1.1-1.441-2.306-3.017-4.881-4.5-7.706-.692-1.345-1.384-2.748-2-4.208A37.965,37.965,0,0,1,131,196.111v-.135c.019-1.787.077-3.305.211-4.573.653-6.841,2.825-6.783,5.438-8.013,3.094-1.46,11.491-2.364,11.683-6.495.173-4.093-1.826-14.239-.365-17.967,1.46-3.747,4.035-4.477,5.188-.365,1.191,4.093,1.557,21.541,1.922,22.271.384.711,3.689.711,5.015,5.208a15.5,15.5,0,0,1,.192,5.361c-.154,1.595-.423,3.247-.692,4.708-.538,2.709-1.134,4.8-1.134,4.8s2.114,4.17,5.342,10.511c.673,1.307,1.384,2.729,2.133,4.208,1.23,2.4,2.556,5,3.92,7.706.711,1.384,1.422,2.786,2.152,4.208,1.287,2.517,2.613,5.111,3.939,7.706.73,1.4,1.46,2.806,2.171,4.208,1.191,2.325,2.383,4.631,3.555,6.879.154.288.288.557.423.826,4.4,8.513,8.359,16.1,10.8,20.58v.019C192.916,267.786,192.935,267.806,192.935,267.825Z" transform="translate(-131.002 -56.799)" fill="url(#linear-gradient-12)"/>
      <path id="Path_24" data-name="Path 24" d="M260.316,215.714a26.634,26.634,0,0,1,17.909-6.879,25.068,25.068,0,0,1,5.919.673c-1.96-6.726-3.9-12.779-5.842-18.217h-.077a44.306,44.306,0,0,0-23.54,81.822,98.336,98.336,0,0,0,11.088-2.479c.577-.154,1.153-.327,1.691-.519l-.846-10.4a26.229,26.229,0,0,1-7.091-4.977,26.748,26.748,0,0,1-1.4-36.818A23.8,23.8,0,0,1,260.316,215.714Z" transform="translate(-36.123 -24.076)" fill="#fff" opacity="0.1" style="mix-blend-mode: overlay;isolation: isolate"/>
      <path id="Path_25" data-name="Path 25" d="M223.969,180.577a120.605,120.605,0,0,0-15.469.634,20.587,20.587,0,0,1,4.573,13.028,20.923,20.923,0,0,1-37.048,13.317c-.115.192-.211.384-.327.576-2.248,3.939-4.42,8.051-6.457,12.029a34.612,34.612,0,0,0,54.727-39.585Z" transform="translate(-95.759 -33.963)" fill="#fff" opacity="0.1" style="mix-blend-mode: overlay;isolation: isolate"/>
      <path id="Path_26" data-name="Path 26" d="M203.479,224.68a20.646,20.646,0,0,0-7.879,1.557,20,20,0,0,0-6.418,4.131c2.5,1.114,5.073,2.21,7.782,3.247a10.045,10.045,0,0,0,.231,1.038,6.625,6.625,0,0,1,1.038-.538,12.259,12.259,0,0,1,5.246-1.153,12.592,12.592,0,0,1,10.8,6.072q4.554,1.1,9.627,2.018A20.922,20.922,0,0,0,203.479,224.68Z" transform="translate(-77.383 6.696)" fill="#fff" opacity="0.1" style="mix-blend-mode: overlay;isolation: isolate"/>
      <path id="Path_27" data-name="Path 27" d="M255.733,172.36c-4.689.154-9.4,1.595-14.374,3.517.327-.019.653-.038,1-.038a12.635,12.635,0,1,1-12.644,12.625,12.482,12.482,0,0,1,4.4-9.55c-1.787.769-3.651,1.576-5.553,2.344h-.019c-2.114.884-4.285,1.749-6.553,2.575a20.607,20.607,0,0,0,.634,11.53,20.918,20.918,0,1,0,33.109-23Z" transform="translate(-47.643 -41.522)" fill="#fff" opacity="0.1" style="mix-blend-mode: overlay;isolation: isolate"/>
      <path id="Path_28" data-name="Path 28" d="M193.44,144.5c-3.161-.113-2.373,7.3-.548,8.943S198.551,144.683,193.44,144.5Z" transform="translate(-75.435 -67.199)" fill="url(#linear-gradient-13)"/>
      <path id="Path_29" data-name="Path 29" d="M287.944,141.507c-.511,4.508-2.11,10.038-5.223,16.777-11.862,25.728-25.319,42.281-25.319,42.281l-.184.163-.553.452-.163.123c-2.294,1.658-9.035,5.346-19.789,1.578-13.5-4.733-26.651-21.653-27.246-24.46-.613-2.786,4.979.246,6.679-4.731,1.7-5-.35-16.082-5.717-16.8-5.346-.738-9.237,2.316-9.237,9.239,0,6.945-.861,8.891-1.947,7.191-1.107-1.7-5.121-13.274-4.016-19.358-2.929.246-8.336-2.786-8.336-2.786-6.883-3.934-10.632-15.056-11.758-25.894,8.665,11.881,27.306,14.36,40.233,19.42,14.6,5.736,20.136,10.3,28.228,11.574-3.77-2.56-5.594-7.661-5.594-7.661s4.548,5.1,23.907,4.733C275.387,153.1,283.992,150.829,287.944,141.507Z" transform="translate(-90.328 -84.908)" fill="url(#linear-gradient-14)"/>
    </g>
    <path id="Path_30" data-name="Path 30" d="M116.967,120.467H98.508a2.1,2.1,0,0,0-2.1,2.1h0a2.1,2.1,0,0,0,2.1,2.1h18.459a2.1,2.1,0,0,0,2.1-2.1h0A2.1,2.1,0,0,0,116.967,120.467Z" transform="translate(-41.42 50.981)" fill="#8bbcff" opacity="0.25"/>
    <path id="Path_31" data-name="Path 31" d="M132.757,124.191H98.508a2.1,2.1,0,0,0-2.1,2.1h0a2.1,2.1,0,0,0,2.1,2.1h34.249a2.1,2.1,0,0,0,2.1-2.1h0A2.1,2.1,0,0,0,132.757,124.191Z" transform="translate(-41.42 54.414)" fill="#8bbcff" opacity="0.25"/>
    <path id="Path_32" data-name="Path 32" d="M183.1,224.961v.019a.239.239,0,0,1-.058-.038c-9.416-3.824-22.771-5.553-38.509-5-.98-3.536-1.941-6.918-2.863-10.108a120.962,120.962,0,0,1,12.317-5.534c5.669-1.979,11.683-2.921,17.852-.826.154.288.288.557.423.826,4.4,8.513,8.359,16.1,10.8,20.58v.019C183.082,224.923,183.1,224.942,183.1,224.961Z" transform="translate(0.296 126.393)" fill="url(#linear-gradient-15)"/>
    <path id="Path_33" data-name="Path 33" d="M168.193,119.554a8.886,8.886,0,1,0-12.567,12.567l6.284,6.264,6.284-6.264a8.907,8.907,0,0,0,0-12.567Zm-6.284,9.57a3.286,3.286,0,1,1,3.286-3.267A3.276,3.276,0,0,1,161.91,129.124Z" transform="translate(10.765 47.75)" fill="url(#linear-gradient-16)"/>
  </g>
</svg>
