<svg xmlns="http://www.w3.org/2000/svg" width="20.948" height="20.958" viewBox="0 0 20.948 20.958">
  <g id="Group_10497" data-name="Group 10497" transform="translate(-278.762 -251.912)">
    <path id="Path_13" data-name="Path 13" d="M3042.412,2827h4.123a8.44,8.44,0,0,1,8.412,8.422v4.123a8.432,8.432,0,0,1-8.412,8.412h-4.123a8.431,8.431,0,0,1-8.412-8.412v-4.123A8.44,8.44,0,0,1,3042.412,2827Z" transform="translate(-2755.238 -2575.088)" fill="#08779c" fill-rule="evenodd"/>
    <path id="Path_14" data-name="Path 14" d="M3043.147,2827h1.782a9.188,9.188,0,0,1,9.158,9.158v1.782a9.188,9.188,0,0,1-9.158,9.158h-1.782a9.179,9.179,0,0,1-9.147-9.158v-1.782A9.179,9.179,0,0,1,3043.147,2827Z" transform="translate(-2755.238 -2575.088)" fill="#0084b1" fill-rule="evenodd"/>
    <path id="Path_23" data-name="Path 23" d="M3675.922,3390a.924.924,0,0,1,.922.922.922.922,0,1,1-.922-.922Z" transform="translate(-3389.597 -3132.255)" fill="#fefefe" fill-rule="evenodd"/>
    <path id="Path_24" data-name="Path 24" d="M3688.336,3640.107h-1.078a.254.254,0,0,1-.259-.249v-4.6a.256.256,0,0,1,.259-.259h1.078a.254.254,0,0,1,.249.259v4.6A.252.252,0,0,1,3688.336,3640.107Z" transform="translate(-3401.473 -3374.717)" fill="#fefefe" fill-rule="evenodd"/>
    <path id="Path_25" data-name="Path 25" d="M3941.952,3624.741A1.74,1.74,0,0,0,3940.2,3623h-.269a1.542,1.542,0,0,0-1.274.663.586.586,0,0,0-.083.135h-.021v-.57a.1.1,0,0,0-.1-.1H3937.1a.111.111,0,0,0-.1.1v4.9a.111.111,0,0,0,.1.1h1.378a.1.1,0,0,0,.1-.1V3625.3a.894.894,0,0,1,1.523-.642.92.92,0,0,1,.259.632v2.839a.1.1,0,0,0,.1.1h1.378a.1.1,0,0,0,.1-.1v-3.388Z" transform="translate(-3648.883 -3362.842)" fill="#fefefe" fill-rule="evenodd"/>
  </g>
</svg>
