<svg xmlns="http://www.w3.org/2000/svg" width="20.919" height="20.919" viewBox="0 0 20.919 20.919">
  <g id="Group_10496" data-name="Group 10496" transform="translate(-304.791 -252.074)">
    <path id="Path_244" data-name="Path 244" d="M6081.4,8445h4.118a8.42,8.42,0,0,1,8.4,8.4v4.117a8.42,8.42,0,0,1-8.4,8.4H6081.4a8.42,8.42,0,0,1-8.4-8.4V8453.4A8.42,8.42,0,0,1,6081.4,8445Z" transform="translate(-5768.209 -8192.926)" fill="#0d81e0" fill-rule="evenodd"/>
    <path id="Path_245" data-name="Path 245" d="M6082.135,8445h1.79a9.158,9.158,0,0,1,9.136,9.135v1.78a9.167,9.167,0,0,1-9.136,9.146h-1.79a9.167,9.167,0,0,1-9.135-9.146v-1.78A9.158,9.158,0,0,1,6082.135,8445Z" transform="translate(-5768.209 -8192.926)" fill="#0e8cf1" fill-rule="evenodd"/>
    <path id="Path_254" data-name="Path 254" d="M6829.417,8983.8v1.542H6828v1.6h1.417v4.334h1.79v-4.334h1.293s.114-.8.176-1.614h-1.458v-1.458a.443.443,0,0,1,.414-.373h1.139V8982h-1.387C6829.376,8982,6829.417,8983.563,6829.417,8983.8Z" transform="translate(-6515.398 -8724.37)" fill="#fefefe" fill-rule="evenodd"/>
  </g>
</svg>
